<?xml version="1.0" encoding="utf-8" standalone="no"?>
<!DOCTYPE svg PUBLIC "-//W3C//DTD SVG 1.1//EN"
  "http://www.w3.org/Graphics/SVG/1.1/DTD/svg11.dtd">
<svg height="345.6pt" version="1.1" viewBox="0 0 460.8 345.6" width="460.8pt" xmlns="http://www.w3.org/2000/svg" xmlns:xlink="http://www.w3.org/1999/xlink">
 <metadata>
  <rdf:RDF xmlns:cc="http://creativecommons.org/ns#" xmlns:dc="http://purl.org/dc/elements/1.1/" xmlns:rdf="http://www.w3.org/1999/02/22-rdf-syntax-ns#">
   <cc:Work>
    <dc:type rdf:resource="http://purl.org/dc/dcmitype/StillImage"/>
    <dc:date>2021-08-09T09:35:05.264892</dc:date>
    <dc:format>image/svg+xml</dc:format>
    <dc:creator>
     <cc:Agent>
      <dc:title>Matplotlib v3.4.2, https://matplotlib.org/</dc:title>
     </cc:Agent>
    </dc:creator>
   </cc:Work>
  </rdf:RDF>
 </metadata>
 <defs>
  <style type="text/css">*{stroke-linecap:butt;stroke-linejoin:round;}</style>
 </defs>
 <g id="figure_1">
  <g id="patch_1">
   <path d="M 0 345.6 
L 460.8 345.6 
L 460.8 0 
L 0 0 
z
" style="fill:#ffffff;"/>
  </g>
  <g id="axes_1">
   <g id="patch_2">
    <path d="M 57.6 307.584 
L 414.72 307.584 
L 414.72 41.472 
L 57.6 41.472 
z
" style="fill:#ffffff;"/>
   </g>
   <g id="PathCollection_1">
    <defs>
     <path d="M 0 3 
C 0.795609 3 1.55874 2.683901 2.12132 2.12132 
C 2.683901 1.55874 3 0.795609 3 0 
C 3 -0.795609 2.683901 -1.55874 2.12132 -2.12132 
C 1.55874 -2.683901 0.795609 -3 0 -3 
C -0.795609 -3 -1.55874 -2.683901 -2.12132 -2.12132 
C -2.683901 -1.55874 -3 -0.795609 -3 0 
C -3 0.795609 -2.683901 1.55874 -2.12132 2.12132 
C -1.55874 2.683901 -0.795609 3 0 3 
z
" id="m03b2aa3dda" style="stroke:#ff6347;stroke-opacity:0.6;"/>
    </defs>
    <g clip-path="url(#pa90530aeae)">
     <use style="fill:#ff6347;fill-opacity:0.6;stroke:#ff6347;stroke-opacity:0.6;" x="-1" xlink:href="#m03b2aa3dda" y="80.108318"/>
     <use style="fill:#ff6347;fill-opacity:0.6;stroke:#ff6347;stroke-opacity:0.6;" x="80.828699" xlink:href="#m03b2aa3dda" y="80.11947"/>
     <use style="fill:#ff6347;fill-opacity:0.6;stroke:#ff6347;stroke-opacity:0.6;" x="136.796412" xlink:href="#m03b2aa3dda" y="85.628495"/>
     <use style="fill:#ff6347;fill-opacity:0.6;stroke:#ff6347;stroke-opacity:0.6;" x="169.535425" xlink:href="#m03b2aa3dda" y="96.118385"/>
     <use style="fill:#ff6347;fill-opacity:0.6;stroke:#ff6347;stroke-opacity:0.6;" x="192.764125" xlink:href="#m03b2aa3dda" y="133.037077"/>
     <use style="fill:#ff6347;fill-opacity:0.6;stroke:#ff6347;stroke-opacity:0.6;" x="210.781704" xlink:href="#m03b2aa3dda" y="147.419667"/>
     <use style="fill:#ff6347;fill-opacity:0.6;stroke:#ff6347;stroke-opacity:0.6;" x="225.503138" xlink:href="#m03b2aa3dda" y="137.456779"/>
     <use style="fill:#ff6347;fill-opacity:0.6;stroke:#ff6347;stroke-opacity:0.6;" x="237.949933" xlink:href="#m03b2aa3dda" y="183.568817"/>
     <use style="fill:#ff6347;fill-opacity:0.6;stroke:#ff6347;stroke-opacity:0.6;" x="248.731837" xlink:href="#m03b2aa3dda" y="159.387406"/>
     <use style="fill:#ff6347;fill-opacity:0.6;stroke:#ff6347;stroke-opacity:0.6;" x="258.242151" xlink:href="#m03b2aa3dda" y="98.457457"/>
     <use style="fill:#ff6347;fill-opacity:0.6;stroke:#ff6347;stroke-opacity:0.6;" x="266.749417" xlink:href="#m03b2aa3dda" y="183.568817"/>
     <use style="fill:#ff6347;fill-opacity:0.6;stroke:#ff6347;stroke-opacity:0.6;" x="274.445174" xlink:href="#m03b2aa3dda" y="207.750227"/>
     <use style="fill:#ff6347;fill-opacity:0.6;stroke:#ff6347;stroke-opacity:0.6;" x="281.470851" xlink:href="#m03b2aa3dda" y="133.037077"/>
     <use style="fill:#ff6347;fill-opacity:0.6;stroke:#ff6347;stroke-opacity:0.6;" x="287.933846" xlink:href="#m03b2aa3dda" y="174.375471"/>
     <use style="fill:#ff6347;fill-opacity:0.6;stroke:#ff6347;stroke-opacity:0.6;" x="293.917646" xlink:href="#m03b2aa3dda" y="194.442237"/>
     <use style="fill:#ff6347;fill-opacity:0.6;stroke:#ff6347;stroke-opacity:0.6;" x="299.48843" xlink:href="#m03b2aa3dda" y="207.750227"/>
     <use style="fill:#ff6347;fill-opacity:0.6;stroke:#ff6347;stroke-opacity:0.6;" x="304.69955" xlink:href="#m03b2aa3dda" y="224.907211"/>
     <use style="fill:#ff6347;fill-opacity:0.6;stroke:#ff6347;stroke-opacity:0.6;" x="309.594645" xlink:href="#m03b2aa3dda" y="290.427016"/>
     <use style="fill:#ff6347;fill-opacity:0.6;stroke:#ff6347;stroke-opacity:0.6;" x="314.209864" xlink:href="#m03b2aa3dda" y="249.088622"/>
     <use style="fill:#ff6347;fill-opacity:0.6;stroke:#ff6347;stroke-opacity:0.6;" x="318.575486" xlink:href="#m03b2aa3dda" y="224.907211"/>
     <use style="fill:#ff6347;fill-opacity:0.6;stroke:#ff6347;stroke-opacity:0.6;" x="322.717129" xlink:href="#m03b2aa3dda" y="224.907211"/>
     <use style="fill:#ff6347;fill-opacity:0.6;stroke:#ff6347;stroke-opacity:0.6;" x="326.656659" xlink:href="#m03b2aa3dda" y="290.427016"/>
     <use style="fill:#ff6347;fill-opacity:0.6;stroke:#ff6347;stroke-opacity:0.6;" x="330.412887" xlink:href="#m03b2aa3dda" y="224.907211"/>
     <use style="fill:#ff6347;fill-opacity:0.6;stroke:#ff6347;stroke-opacity:0.6;" x="340.734708" xlink:href="#m03b2aa3dda" y="224.907211"/>
     <use style="fill:#ff6347;fill-opacity:0.6;stroke:#ff6347;stroke-opacity:0.6;" x="346.948877" xlink:href="#m03b2aa3dda" y="249.088622"/>
     <use style="fill:#ff6347;fill-opacity:0.6;stroke:#ff6347;stroke-opacity:0.6;" x="349.885358" xlink:href="#m03b2aa3dda" y="249.088622"/>
     <use style="fill:#ff6347;fill-opacity:0.6;stroke:#ff6347;stroke-opacity:0.6;" x="355.456142" xlink:href="#m03b2aa3dda" y="290.427016"/>
     <use style="fill:#ff6347;fill-opacity:0.6;stroke:#ff6347;stroke-opacity:0.6;" x="358.103735" xlink:href="#m03b2aa3dda" y="290.427016"/>
     <use style="fill:#ff6347;fill-opacity:0.6;stroke:#ff6347;stroke-opacity:0.6;" x="365.562358" xlink:href="#m03b2aa3dda" y="290.427016"/>
     <use style="fill:#ff6347;fill-opacity:0.6;stroke:#ff6347;stroke-opacity:0.6;" x="367.902937" xlink:href="#m03b2aa3dda" y="290.427016"/>
     <use style="fill:#ff6347;fill-opacity:0.6;stroke:#ff6347;stroke-opacity:0.6;" x="395.071167" xlink:href="#m03b2aa3dda" y="290.427016"/>
     <use style="fill:#ff6347;fill-opacity:0.6;stroke:#ff6347;stroke-opacity:0.6;" x="396.702421" xlink:href="#m03b2aa3dda" y="290.427016"/>
    </g>
   </g>
   <g id="PathCollection_2">
    <defs>
     <path d="M 0 3 
C 0.795609 3 1.55874 2.683901 2.12132 2.12132 
C 2.683901 1.55874 3 0.795609 3 0 
C 3 -0.795609 2.683901 -1.55874 2.12132 -2.12132 
C 1.55874 -2.683901 0.795609 -3 0 -3 
C -0.795609 -3 -1.55874 -2.683901 -2.12132 -2.12132 
C -2.683901 -1.55874 -3 -0.795609 -3 0 
C -3 0.795609 -2.683901 1.55874 -2.12132 2.12132 
C -1.55874 2.683901 -0.795609 3 0 3 
z
" id="m58884e028c" style="stroke:#00bfff;stroke-opacity:0.6;"/>
    </defs>
    <g clip-path="url(#pa90530aeae)">
     <use style="fill:#00bfff;fill-opacity:0.6;stroke:#00bfff;stroke-opacity:0.6;" x="-1" xlink:href="#m58884e028c" y="207.786616"/>
     <use style="fill:#00bfff;fill-opacity:0.6;stroke:#00bfff;stroke-opacity:0.6;" x="80.828699" xlink:href="#m58884e028c" y="207.750227"/>
     <use style="fill:#00bfff;fill-opacity:0.6;stroke:#00bfff;stroke-opacity:0.6;" x="136.796412" xlink:href="#m58884e028c" y="142.230422"/>
     <use style="fill:#00bfff;fill-opacity:0.6;stroke:#00bfff;stroke-opacity:0.6;" x="169.535425" xlink:href="#m58884e028c" y="137.456779"/>
     <use style="fill:#00bfff;fill-opacity:0.6;stroke:#00bfff;stroke-opacity:0.6;" x="192.764125" xlink:href="#m58884e028c" y="80.11947"/>
     <use style="fill:#00bfff;fill-opacity:0.6;stroke:#00bfff;stroke-opacity:0.6;" x="210.781704" xlink:href="#m58884e028c" y="60.809231"/>
     <use style="fill:#00bfff;fill-opacity:0.6;stroke:#00bfff;stroke-opacity:0.6;" x="225.503138" xlink:href="#m58884e028c" y="55.93806"/>
     <use style="fill:#00bfff;fill-opacity:0.6;stroke:#00bfff;stroke-opacity:0.6;" x="237.949933" xlink:href="#m58884e028c" y="64.742878"/>
     <use style="fill:#00bfff;fill-opacity:0.6;stroke:#00bfff;stroke-opacity:0.6;" x="248.731837" xlink:href="#m58884e028c" y="81.899862"/>
     <use style="fill:#00bfff;fill-opacity:0.6;stroke:#00bfff;stroke-opacity:0.6;" x="258.242151" xlink:href="#m58884e028c" y="114.824513"/>
     <use style="fill:#00bfff;fill-opacity:0.6;stroke:#00bfff;stroke-opacity:0.6;" x="266.749417" xlink:href="#m58884e028c" y="118.049012"/>
     <use style="fill:#00bfff;fill-opacity:0.6;stroke:#00bfff;stroke-opacity:0.6;" x="274.445174" xlink:href="#m58884e028c" y="194.442237"/>
     <use style="fill:#00bfff;fill-opacity:0.6;stroke:#00bfff;stroke-opacity:0.6;" x="281.470851" xlink:href="#m58884e028c" y="174.375471"/>
     <use style="fill:#00bfff;fill-opacity:0.6;stroke:#00bfff;stroke-opacity:0.6;" x="287.933846" xlink:href="#m58884e028c" y="290.427016"/>
     <use style="fill:#00bfff;fill-opacity:0.6;stroke:#00bfff;stroke-opacity:0.6;" x="299.48843" xlink:href="#m58884e028c" y="290.427016"/>
    </g>
   </g>
   <g id="matplotlib.axis_1">
    <g id="xtick_1">
     <g id="line2d_1">
      <defs>
       <path d="M 0 0 
L 0 3.5 
" id="mfabe6f4ef3" style="stroke:#000000;stroke-width:0.8;"/>
      </defs>
      <g>
       <use style="stroke:#000000;stroke-width:0.8;" x="80.828699" xlink:href="#mfabe6f4ef3" y="307.584"/>
      </g>
     </g>
     <g id="text_1">
      <!-- $\mathdefault{10^{0}}$ -->
      <g transform="translate(72.028699 322.182437)scale(0.1 -0.1)">
       <defs>
        <path d="M 794 531 
L 1825 531 
L 1825 4091 
L 703 3866 
L 703 4441 
L 1819 4666 
L 2450 4666 
L 2450 531 
L 3481 531 
L 3481 0 
L 794 0 
L 794 531 
z
" id="DejaVuSans-31" transform="scale(0.015625)"/>
        <path d="M 2034 4250 
Q 1547 4250 1301 3770 
Q 1056 3291 1056 2328 
Q 1056 1369 1301 889 
Q 1547 409 2034 409 
Q 2525 409 2770 889 
Q 3016 1369 3016 2328 
Q 3016 3291 2770 3770 
Q 2525 4250 2034 4250 
z
M 2034 4750 
Q 2819 4750 3233 4129 
Q 3647 3509 3647 2328 
Q 3647 1150 3233 529 
Q 2819 -91 2034 -91 
Q 1250 -91 836 529 
Q 422 1150 422 2328 
Q 422 3509 836 4129 
Q 1250 4750 2034 4750 
z
" id="DejaVuSans-30" transform="scale(0.015625)"/>
       </defs>
       <use transform="translate(0 0.765625)" xlink:href="#DejaVuSans-31"/>
       <use transform="translate(63.623047 0.765625)" xlink:href="#DejaVuSans-30"/>
       <use transform="translate(128.203125 39.046875)scale(0.7)" xlink:href="#DejaVuSans-30"/>
      </g>
     </g>
    </g>
    <g id="xtick_2">
     <g id="line2d_2">
      <g>
       <use style="stroke:#000000;stroke-width:0.8;" x="266.749417" xlink:href="#mfabe6f4ef3" y="307.584"/>
      </g>
     </g>
     <g id="text_2">
      <!-- $\mathdefault{10^{1}}$ -->
      <g transform="translate(257.949417 322.182437)scale(0.1 -0.1)">
       <use transform="translate(0 0.684375)" xlink:href="#DejaVuSans-31"/>
       <use transform="translate(63.623047 0.684375)" xlink:href="#DejaVuSans-30"/>
       <use transform="translate(128.203125 38.965625)scale(0.7)" xlink:href="#DejaVuSans-31"/>
      </g>
     </g>
    </g>
    <g id="xtick_3">
     <g id="line2d_3">
      <defs>
       <path d="M 0 0 
L 0 2 
" id="md315eddeb7" style="stroke:#000000;stroke-width:0.6;"/>
      </defs>
      <g>
       <use style="stroke:#000000;stroke-width:0.6;" x="62.81112" xlink:href="#md315eddeb7" y="307.584"/>
      </g>
     </g>
    </g>
    <g id="xtick_4">
     <g id="line2d_4">
      <g>
       <use style="stroke:#000000;stroke-width:0.6;" x="72.321434" xlink:href="#md315eddeb7" y="307.584"/>
      </g>
     </g>
    </g>
    <g id="xtick_5">
     <g id="line2d_5">
      <g>
       <use style="stroke:#000000;stroke-width:0.6;" x="136.796412" xlink:href="#md315eddeb7" y="307.584"/>
      </g>
     </g>
    </g>
    <g id="xtick_6">
     <g id="line2d_6">
      <g>
       <use style="stroke:#000000;stroke-width:0.6;" x="169.535425" xlink:href="#md315eddeb7" y="307.584"/>
      </g>
     </g>
    </g>
    <g id="xtick_7">
     <g id="line2d_7">
      <g>
       <use style="stroke:#000000;stroke-width:0.6;" x="192.764125" xlink:href="#md315eddeb7" y="307.584"/>
      </g>
     </g>
    </g>
    <g id="xtick_8">
     <g id="line2d_8">
      <g>
       <use style="stroke:#000000;stroke-width:0.6;" x="210.781704" xlink:href="#md315eddeb7" y="307.584"/>
      </g>
     </g>
    </g>
    <g id="xtick_9">
     <g id="line2d_9">
      <g>
       <use style="stroke:#000000;stroke-width:0.6;" x="225.503138" xlink:href="#md315eddeb7" y="307.584"/>
      </g>
     </g>
    </g>
    <g id="xtick_10">
     <g id="line2d_10">
      <g>
       <use style="stroke:#000000;stroke-width:0.6;" x="237.949933" xlink:href="#md315eddeb7" y="307.584"/>
      </g>
     </g>
    </g>
    <g id="xtick_11">
     <g id="line2d_11">
      <g>
       <use style="stroke:#000000;stroke-width:0.6;" x="248.731837" xlink:href="#md315eddeb7" y="307.584"/>
      </g>
     </g>
    </g>
    <g id="xtick_12">
     <g id="line2d_12">
      <g>
       <use style="stroke:#000000;stroke-width:0.6;" x="258.242151" xlink:href="#md315eddeb7" y="307.584"/>
      </g>
     </g>
    </g>
    <g id="xtick_13">
     <g id="line2d_13">
      <g>
       <use style="stroke:#000000;stroke-width:0.6;" x="322.717129" xlink:href="#md315eddeb7" y="307.584"/>
      </g>
     </g>
    </g>
    <g id="xtick_14">
     <g id="line2d_14">
      <g>
       <use style="stroke:#000000;stroke-width:0.6;" x="355.456142" xlink:href="#md315eddeb7" y="307.584"/>
      </g>
     </g>
    </g>
    <g id="xtick_15">
     <g id="line2d_15">
      <g>
       <use style="stroke:#000000;stroke-width:0.6;" x="378.684842" xlink:href="#md315eddeb7" y="307.584"/>
      </g>
     </g>
    </g>
    <g id="xtick_16">
     <g id="line2d_16">
      <g>
       <use style="stroke:#000000;stroke-width:0.6;" x="396.702421" xlink:href="#md315eddeb7" y="307.584"/>
      </g>
     </g>
    </g>
    <g id="xtick_17">
     <g id="line2d_17">
      <g>
       <use style="stroke:#000000;stroke-width:0.6;" x="411.423855" xlink:href="#md315eddeb7" y="307.584"/>
      </g>
     </g>
    </g>
    <g id="text_3">
     <!-- Degree, k -->
     <g transform="translate(211.889687 335.860562)scale(0.1 -0.1)">
      <defs>
       <path d="M 1259 4147 
L 1259 519 
L 2022 519 
Q 2988 519 3436 956 
Q 3884 1394 3884 2338 
Q 3884 3275 3436 3711 
Q 2988 4147 2022 4147 
L 1259 4147 
z
M 628 4666 
L 1925 4666 
Q 3281 4666 3915 4102 
Q 4550 3538 4550 2338 
Q 4550 1131 3912 565 
Q 3275 0 1925 0 
L 628 0 
L 628 4666 
z
" id="DejaVuSans-44" transform="scale(0.015625)"/>
       <path d="M 3597 1894 
L 3597 1613 
L 953 1613 
Q 991 1019 1311 708 
Q 1631 397 2203 397 
Q 2534 397 2845 478 
Q 3156 559 3463 722 
L 3463 178 
Q 3153 47 2828 -22 
Q 2503 -91 2169 -91 
Q 1331 -91 842 396 
Q 353 884 353 1716 
Q 353 2575 817 3079 
Q 1281 3584 2069 3584 
Q 2775 3584 3186 3129 
Q 3597 2675 3597 1894 
z
M 3022 2063 
Q 3016 2534 2758 2815 
Q 2500 3097 2075 3097 
Q 1594 3097 1305 2825 
Q 1016 2553 972 2059 
L 3022 2063 
z
" id="DejaVuSans-65" transform="scale(0.015625)"/>
       <path d="M 2906 1791 
Q 2906 2416 2648 2759 
Q 2391 3103 1925 3103 
Q 1463 3103 1205 2759 
Q 947 2416 947 1791 
Q 947 1169 1205 825 
Q 1463 481 1925 481 
Q 2391 481 2648 825 
Q 2906 1169 2906 1791 
z
M 3481 434 
Q 3481 -459 3084 -895 
Q 2688 -1331 1869 -1331 
Q 1566 -1331 1297 -1286 
Q 1028 -1241 775 -1147 
L 775 -588 
Q 1028 -725 1275 -790 
Q 1522 -856 1778 -856 
Q 2344 -856 2625 -561 
Q 2906 -266 2906 331 
L 2906 616 
Q 2728 306 2450 153 
Q 2172 0 1784 0 
Q 1141 0 747 490 
Q 353 981 353 1791 
Q 353 2603 747 3093 
Q 1141 3584 1784 3584 
Q 2172 3584 2450 3431 
Q 2728 3278 2906 2969 
L 2906 3500 
L 3481 3500 
L 3481 434 
z
" id="DejaVuSans-67" transform="scale(0.015625)"/>
       <path d="M 2631 2963 
Q 2534 3019 2420 3045 
Q 2306 3072 2169 3072 
Q 1681 3072 1420 2755 
Q 1159 2438 1159 1844 
L 1159 0 
L 581 0 
L 581 3500 
L 1159 3500 
L 1159 2956 
Q 1341 3275 1631 3429 
Q 1922 3584 2338 3584 
Q 2397 3584 2469 3576 
Q 2541 3569 2628 3553 
L 2631 2963 
z
" id="DejaVuSans-72" transform="scale(0.015625)"/>
       <path d="M 750 794 
L 1409 794 
L 1409 256 
L 897 -744 
L 494 -744 
L 750 256 
L 750 794 
z
" id="DejaVuSans-2c" transform="scale(0.015625)"/>
       <path id="DejaVuSans-20" transform="scale(0.015625)"/>
       <path d="M 581 4863 
L 1159 4863 
L 1159 1991 
L 2875 3500 
L 3609 3500 
L 1753 1863 
L 3688 0 
L 2938 0 
L 1159 1709 
L 1159 0 
L 581 0 
L 581 4863 
z
" id="DejaVuSans-6b" transform="scale(0.015625)"/>
      </defs>
      <use xlink:href="#DejaVuSans-44"/>
      <use x="77.001953" xlink:href="#DejaVuSans-65"/>
      <use x="138.525391" xlink:href="#DejaVuSans-67"/>
      <use x="202.001953" xlink:href="#DejaVuSans-72"/>
      <use x="240.865234" xlink:href="#DejaVuSans-65"/>
      <use x="302.388672" xlink:href="#DejaVuSans-65"/>
      <use x="363.912109" xlink:href="#DejaVuSans-2c"/>
      <use x="395.699219" xlink:href="#DejaVuSans-20"/>
      <use x="427.486328" xlink:href="#DejaVuSans-6b"/>
     </g>
    </g>
   </g>
   <g id="matplotlib.axis_2">
    <g id="ytick_1">
     <g id="line2d_18">
      <defs>
       <path d="M 0 0 
L -3.5 0 
" id="md7c24c3672" style="stroke:#000000;stroke-width:0.8;"/>
      </defs>
      <g>
       <use style="stroke:#000000;stroke-width:0.8;" x="57.6" xlink:href="#md7c24c3672" y="226.929055"/>
      </g>
     </g>
     <g id="text_4">
      <!-- $\mathdefault{10^{-2}}$ -->
      <g transform="translate(27.1 230.728274)scale(0.1 -0.1)">
       <defs>
        <path d="M 678 2272 
L 4684 2272 
L 4684 1741 
L 678 1741 
L 678 2272 
z
" id="DejaVuSans-2212" transform="scale(0.015625)"/>
        <path d="M 1228 531 
L 3431 531 
L 3431 0 
L 469 0 
L 469 531 
Q 828 903 1448 1529 
Q 2069 2156 2228 2338 
Q 2531 2678 2651 2914 
Q 2772 3150 2772 3378 
Q 2772 3750 2511 3984 
Q 2250 4219 1831 4219 
Q 1534 4219 1204 4116 
Q 875 4013 500 3803 
L 500 4441 
Q 881 4594 1212 4672 
Q 1544 4750 1819 4750 
Q 2544 4750 2975 4387 
Q 3406 4025 3406 3419 
Q 3406 3131 3298 2873 
Q 3191 2616 2906 2266 
Q 2828 2175 2409 1742 
Q 1991 1309 1228 531 
z
" id="DejaVuSans-32" transform="scale(0.015625)"/>
       </defs>
       <use transform="translate(0 0.765625)" xlink:href="#DejaVuSans-31"/>
       <use transform="translate(63.623047 0.765625)" xlink:href="#DejaVuSans-30"/>
       <use transform="translate(128.203125 39.046875)scale(0.7)" xlink:href="#DejaVuSans-2212"/>
       <use transform="translate(186.855469 39.046875)scale(0.7)" xlink:href="#DejaVuSans-32"/>
      </g>
     </g>
    </g>
    <g id="ytick_2">
     <g id="line2d_19">
      <g>
       <use style="stroke:#000000;stroke-width:0.8;" x="57.6" xlink:href="#md7c24c3672" y="89.605882"/>
      </g>
     </g>
     <g id="text_5">
      <!-- $\mathdefault{10^{-1}}$ -->
      <g transform="translate(27.1 93.4051)scale(0.1 -0.1)">
       <use transform="translate(0 0.684375)" xlink:href="#DejaVuSans-31"/>
       <use transform="translate(63.623047 0.684375)" xlink:href="#DejaVuSans-30"/>
       <use transform="translate(128.203125 38.965625)scale(0.7)" xlink:href="#DejaVuSans-2212"/>
       <use transform="translate(186.855469 38.965625)scale(0.7)" xlink:href="#DejaVuSans-31"/>
      </g>
     </g>
    </g>
    <g id="ytick_3">
     <g id="line2d_20">
      <defs>
       <path d="M 0 0 
L -2 0 
" id="m81ae751e6b" style="stroke:#000000;stroke-width:0.6;"/>
      </defs>
      <g>
       <use style="stroke:#000000;stroke-width:0.6;" x="57.6" xlink:href="#m81ae751e6b" y="298.732424"/>
      </g>
     </g>
    </g>
    <g id="ytick_4">
     <g id="line2d_21">
      <g>
       <use style="stroke:#000000;stroke-width:0.6;" x="57.6" xlink:href="#m81ae751e6b" y="281.57544"/>
      </g>
     </g>
    </g>
    <g id="ytick_5">
     <g id="line2d_22">
      <g>
       <use style="stroke:#000000;stroke-width:0.6;" x="57.6" xlink:href="#m81ae751e6b" y="268.26745"/>
      </g>
     </g>
    </g>
    <g id="ytick_6">
     <g id="line2d_23">
      <g>
       <use style="stroke:#000000;stroke-width:0.6;" x="57.6" xlink:href="#m81ae751e6b" y="257.39403"/>
      </g>
     </g>
    </g>
    <g id="ytick_7">
     <g id="line2d_24">
      <g>
       <use style="stroke:#000000;stroke-width:0.6;" x="57.6" xlink:href="#m81ae751e6b" y="248.200684"/>
      </g>
     </g>
    </g>
    <g id="ytick_8">
     <g id="line2d_25">
      <g>
       <use style="stroke:#000000;stroke-width:0.6;" x="57.6" xlink:href="#m81ae751e6b" y="240.237046"/>
      </g>
     </g>
    </g>
    <g id="ytick_9">
     <g id="line2d_26">
      <g>
       <use style="stroke:#000000;stroke-width:0.6;" x="57.6" xlink:href="#m81ae751e6b" y="233.212619"/>
      </g>
     </g>
    </g>
    <g id="ytick_10">
     <g id="line2d_27">
      <g>
       <use style="stroke:#000000;stroke-width:0.6;" x="57.6" xlink:href="#m81ae751e6b" y="185.590661"/>
      </g>
     </g>
    </g>
    <g id="ytick_11">
     <g id="line2d_28">
      <g>
       <use style="stroke:#000000;stroke-width:0.6;" x="57.6" xlink:href="#m81ae751e6b" y="161.40925"/>
      </g>
     </g>
    </g>
    <g id="ytick_12">
     <g id="line2d_29">
      <g>
       <use style="stroke:#000000;stroke-width:0.6;" x="57.6" xlink:href="#m81ae751e6b" y="144.252267"/>
      </g>
     </g>
    </g>
    <g id="ytick_13">
     <g id="line2d_30">
      <g>
       <use style="stroke:#000000;stroke-width:0.6;" x="57.6" xlink:href="#m81ae751e6b" y="130.944276"/>
      </g>
     </g>
    </g>
    <g id="ytick_14">
     <g id="line2d_31">
      <g>
       <use style="stroke:#000000;stroke-width:0.6;" x="57.6" xlink:href="#m81ae751e6b" y="120.070856"/>
      </g>
     </g>
    </g>
    <g id="ytick_15">
     <g id="line2d_32">
      <g>
       <use style="stroke:#000000;stroke-width:0.6;" x="57.6" xlink:href="#m81ae751e6b" y="110.87751"/>
      </g>
     </g>
    </g>
    <g id="ytick_16">
     <g id="line2d_33">
      <g>
       <use style="stroke:#000000;stroke-width:0.6;" x="57.6" xlink:href="#m81ae751e6b" y="102.913872"/>
      </g>
     </g>
    </g>
    <g id="ytick_17">
     <g id="line2d_34">
      <g>
       <use style="stroke:#000000;stroke-width:0.6;" x="57.6" xlink:href="#m81ae751e6b" y="95.889445"/>
      </g>
     </g>
    </g>
    <g id="ytick_18">
     <g id="line2d_35">
      <g>
       <use style="stroke:#000000;stroke-width:0.6;" x="57.6" xlink:href="#m81ae751e6b" y="48.267487"/>
      </g>
     </g>
    </g>
    <g id="text_6">
     <!-- Frequency of Nodes with degree k, n(k) -->
     <g transform="translate(21.020312 272.945187)rotate(-90)scale(0.1 -0.1)">
      <defs>
       <path d="M 628 4666 
L 3309 4666 
L 3309 4134 
L 1259 4134 
L 1259 2759 
L 3109 2759 
L 3109 2228 
L 1259 2228 
L 1259 0 
L 628 0 
L 628 4666 
z
" id="DejaVuSans-46" transform="scale(0.015625)"/>
       <path d="M 947 1747 
Q 947 1113 1208 752 
Q 1469 391 1925 391 
Q 2381 391 2643 752 
Q 2906 1113 2906 1747 
Q 2906 2381 2643 2742 
Q 2381 3103 1925 3103 
Q 1469 3103 1208 2742 
Q 947 2381 947 1747 
z
M 2906 525 
Q 2725 213 2448 61 
Q 2172 -91 1784 -91 
Q 1150 -91 751 415 
Q 353 922 353 1747 
Q 353 2572 751 3078 
Q 1150 3584 1784 3584 
Q 2172 3584 2448 3432 
Q 2725 3281 2906 2969 
L 2906 3500 
L 3481 3500 
L 3481 -1331 
L 2906 -1331 
L 2906 525 
z
" id="DejaVuSans-71" transform="scale(0.015625)"/>
       <path d="M 544 1381 
L 544 3500 
L 1119 3500 
L 1119 1403 
Q 1119 906 1312 657 
Q 1506 409 1894 409 
Q 2359 409 2629 706 
Q 2900 1003 2900 1516 
L 2900 3500 
L 3475 3500 
L 3475 0 
L 2900 0 
L 2900 538 
Q 2691 219 2414 64 
Q 2138 -91 1772 -91 
Q 1169 -91 856 284 
Q 544 659 544 1381 
z
M 1991 3584 
L 1991 3584 
z
" id="DejaVuSans-75" transform="scale(0.015625)"/>
       <path d="M 3513 2113 
L 3513 0 
L 2938 0 
L 2938 2094 
Q 2938 2591 2744 2837 
Q 2550 3084 2163 3084 
Q 1697 3084 1428 2787 
Q 1159 2491 1159 1978 
L 1159 0 
L 581 0 
L 581 3500 
L 1159 3500 
L 1159 2956 
Q 1366 3272 1645 3428 
Q 1925 3584 2291 3584 
Q 2894 3584 3203 3211 
Q 3513 2838 3513 2113 
z
" id="DejaVuSans-6e" transform="scale(0.015625)"/>
       <path d="M 3122 3366 
L 3122 2828 
Q 2878 2963 2633 3030 
Q 2388 3097 2138 3097 
Q 1578 3097 1268 2742 
Q 959 2388 959 1747 
Q 959 1106 1268 751 
Q 1578 397 2138 397 
Q 2388 397 2633 464 
Q 2878 531 3122 666 
L 3122 134 
Q 2881 22 2623 -34 
Q 2366 -91 2075 -91 
Q 1284 -91 818 406 
Q 353 903 353 1747 
Q 353 2603 823 3093 
Q 1294 3584 2113 3584 
Q 2378 3584 2631 3529 
Q 2884 3475 3122 3366 
z
" id="DejaVuSans-63" transform="scale(0.015625)"/>
       <path d="M 2059 -325 
Q 1816 -950 1584 -1140 
Q 1353 -1331 966 -1331 
L 506 -1331 
L 506 -850 
L 844 -850 
Q 1081 -850 1212 -737 
Q 1344 -625 1503 -206 
L 1606 56 
L 191 3500 
L 800 3500 
L 1894 763 
L 2988 3500 
L 3597 3500 
L 2059 -325 
z
" id="DejaVuSans-79" transform="scale(0.015625)"/>
       <path d="M 1959 3097 
Q 1497 3097 1228 2736 
Q 959 2375 959 1747 
Q 959 1119 1226 758 
Q 1494 397 1959 397 
Q 2419 397 2687 759 
Q 2956 1122 2956 1747 
Q 2956 2369 2687 2733 
Q 2419 3097 1959 3097 
z
M 1959 3584 
Q 2709 3584 3137 3096 
Q 3566 2609 3566 1747 
Q 3566 888 3137 398 
Q 2709 -91 1959 -91 
Q 1206 -91 779 398 
Q 353 888 353 1747 
Q 353 2609 779 3096 
Q 1206 3584 1959 3584 
z
" id="DejaVuSans-6f" transform="scale(0.015625)"/>
       <path d="M 2375 4863 
L 2375 4384 
L 1825 4384 
Q 1516 4384 1395 4259 
Q 1275 4134 1275 3809 
L 1275 3500 
L 2222 3500 
L 2222 3053 
L 1275 3053 
L 1275 0 
L 697 0 
L 697 3053 
L 147 3053 
L 147 3500 
L 697 3500 
L 697 3744 
Q 697 4328 969 4595 
Q 1241 4863 1831 4863 
L 2375 4863 
z
" id="DejaVuSans-66" transform="scale(0.015625)"/>
       <path d="M 628 4666 
L 1478 4666 
L 3547 763 
L 3547 4666 
L 4159 4666 
L 4159 0 
L 3309 0 
L 1241 3903 
L 1241 0 
L 628 0 
L 628 4666 
z
" id="DejaVuSans-4e" transform="scale(0.015625)"/>
       <path d="M 2906 2969 
L 2906 4863 
L 3481 4863 
L 3481 0 
L 2906 0 
L 2906 525 
Q 2725 213 2448 61 
Q 2172 -91 1784 -91 
Q 1150 -91 751 415 
Q 353 922 353 1747 
Q 353 2572 751 3078 
Q 1150 3584 1784 3584 
Q 2172 3584 2448 3432 
Q 2725 3281 2906 2969 
z
M 947 1747 
Q 947 1113 1208 752 
Q 1469 391 1925 391 
Q 2381 391 2643 752 
Q 2906 1113 2906 1747 
Q 2906 2381 2643 2742 
Q 2381 3103 1925 3103 
Q 1469 3103 1208 2742 
Q 947 2381 947 1747 
z
" id="DejaVuSans-64" transform="scale(0.015625)"/>
       <path d="M 2834 3397 
L 2834 2853 
Q 2591 2978 2328 3040 
Q 2066 3103 1784 3103 
Q 1356 3103 1142 2972 
Q 928 2841 928 2578 
Q 928 2378 1081 2264 
Q 1234 2150 1697 2047 
L 1894 2003 
Q 2506 1872 2764 1633 
Q 3022 1394 3022 966 
Q 3022 478 2636 193 
Q 2250 -91 1575 -91 
Q 1294 -91 989 -36 
Q 684 19 347 128 
L 347 722 
Q 666 556 975 473 
Q 1284 391 1588 391 
Q 1994 391 2212 530 
Q 2431 669 2431 922 
Q 2431 1156 2273 1281 
Q 2116 1406 1581 1522 
L 1381 1569 
Q 847 1681 609 1914 
Q 372 2147 372 2553 
Q 372 3047 722 3315 
Q 1072 3584 1716 3584 
Q 2034 3584 2315 3537 
Q 2597 3491 2834 3397 
z
" id="DejaVuSans-73" transform="scale(0.015625)"/>
       <path d="M 269 3500 
L 844 3500 
L 1563 769 
L 2278 3500 
L 2956 3500 
L 3675 769 
L 4391 3500 
L 4966 3500 
L 4050 0 
L 3372 0 
L 2619 2869 
L 1863 0 
L 1184 0 
L 269 3500 
z
" id="DejaVuSans-77" transform="scale(0.015625)"/>
       <path d="M 603 3500 
L 1178 3500 
L 1178 0 
L 603 0 
L 603 3500 
z
M 603 4863 
L 1178 4863 
L 1178 4134 
L 603 4134 
L 603 4863 
z
" id="DejaVuSans-69" transform="scale(0.015625)"/>
       <path d="M 1172 4494 
L 1172 3500 
L 2356 3500 
L 2356 3053 
L 1172 3053 
L 1172 1153 
Q 1172 725 1289 603 
Q 1406 481 1766 481 
L 2356 481 
L 2356 0 
L 1766 0 
Q 1100 0 847 248 
Q 594 497 594 1153 
L 594 3053 
L 172 3053 
L 172 3500 
L 594 3500 
L 594 4494 
L 1172 4494 
z
" id="DejaVuSans-74" transform="scale(0.015625)"/>
       <path d="M 3513 2113 
L 3513 0 
L 2938 0 
L 2938 2094 
Q 2938 2591 2744 2837 
Q 2550 3084 2163 3084 
Q 1697 3084 1428 2787 
Q 1159 2491 1159 1978 
L 1159 0 
L 581 0 
L 581 4863 
L 1159 4863 
L 1159 2956 
Q 1366 3272 1645 3428 
Q 1925 3584 2291 3584 
Q 2894 3584 3203 3211 
Q 3513 2838 3513 2113 
z
" id="DejaVuSans-68" transform="scale(0.015625)"/>
       <path d="M 1984 4856 
Q 1566 4138 1362 3434 
Q 1159 2731 1159 2009 
Q 1159 1288 1364 580 
Q 1569 -128 1984 -844 
L 1484 -844 
Q 1016 -109 783 600 
Q 550 1309 550 2009 
Q 550 2706 781 3412 
Q 1013 4119 1484 4856 
L 1984 4856 
z
" id="DejaVuSans-28" transform="scale(0.015625)"/>
       <path d="M 513 4856 
L 1013 4856 
Q 1481 4119 1714 3412 
Q 1947 2706 1947 2009 
Q 1947 1309 1714 600 
Q 1481 -109 1013 -844 
L 513 -844 
Q 928 -128 1133 580 
Q 1338 1288 1338 2009 
Q 1338 2731 1133 3434 
Q 928 4138 513 4856 
z
" id="DejaVuSans-29" transform="scale(0.015625)"/>
      </defs>
      <use xlink:href="#DejaVuSans-46"/>
      <use x="50.269531" xlink:href="#DejaVuSans-72"/>
      <use x="89.132812" xlink:href="#DejaVuSans-65"/>
      <use x="150.65625" xlink:href="#DejaVuSans-71"/>
      <use x="214.132812" xlink:href="#DejaVuSans-75"/>
      <use x="277.511719" xlink:href="#DejaVuSans-65"/>
      <use x="339.035156" xlink:href="#DejaVuSans-6e"/>
      <use x="402.414062" xlink:href="#DejaVuSans-63"/>
      <use x="457.394531" xlink:href="#DejaVuSans-79"/>
      <use x="516.574219" xlink:href="#DejaVuSans-20"/>
      <use x="548.361328" xlink:href="#DejaVuSans-6f"/>
      <use x="609.542969" xlink:href="#DejaVuSans-66"/>
      <use x="644.748047" xlink:href="#DejaVuSans-20"/>
      <use x="676.535156" xlink:href="#DejaVuSans-4e"/>
      <use x="751.339844" xlink:href="#DejaVuSans-6f"/>
      <use x="812.521484" xlink:href="#DejaVuSans-64"/>
      <use x="875.998047" xlink:href="#DejaVuSans-65"/>
      <use x="937.521484" xlink:href="#DejaVuSans-73"/>
      <use x="989.621094" xlink:href="#DejaVuSans-20"/>
      <use x="1021.408203" xlink:href="#DejaVuSans-77"/>
      <use x="1103.195312" xlink:href="#DejaVuSans-69"/>
      <use x="1130.978516" xlink:href="#DejaVuSans-74"/>
      <use x="1170.1875" xlink:href="#DejaVuSans-68"/>
      <use x="1233.566406" xlink:href="#DejaVuSans-20"/>
      <use x="1265.353516" xlink:href="#DejaVuSans-64"/>
      <use x="1328.830078" xlink:href="#DejaVuSans-65"/>
      <use x="1390.353516" xlink:href="#DejaVuSans-67"/>
      <use x="1453.830078" xlink:href="#DejaVuSans-72"/>
      <use x="1492.693359" xlink:href="#DejaVuSans-65"/>
      <use x="1554.216797" xlink:href="#DejaVuSans-65"/>
      <use x="1615.740234" xlink:href="#DejaVuSans-20"/>
      <use x="1647.527344" xlink:href="#DejaVuSans-6b"/>
      <use x="1705.4375" xlink:href="#DejaVuSans-2c"/>
      <use x="1737.224609" xlink:href="#DejaVuSans-20"/>
      <use x="1769.011719" xlink:href="#DejaVuSans-6e"/>
      <use x="1832.390625" xlink:href="#DejaVuSans-28"/>
      <use x="1871.404297" xlink:href="#DejaVuSans-6b"/>
      <use x="1929.314453" xlink:href="#DejaVuSans-29"/>
     </g>
    </g>
   </g>
   <g id="patch_3">
    <path d="M 57.6 307.584 
L 57.6 41.472 
" style="fill:none;stroke:#000000;stroke-linecap:square;stroke-linejoin:miter;stroke-width:0.8;"/>
   </g>
   <g id="patch_4">
    <path d="M 414.72 307.584 
L 414.72 41.472 
" style="fill:none;stroke:#000000;stroke-linecap:square;stroke-linejoin:miter;stroke-width:0.8;"/>
   </g>
   <g id="patch_5">
    <path d="M 57.6 307.584 
L 414.72 307.584 
" style="fill:none;stroke:#000000;stroke-linecap:square;stroke-linejoin:miter;stroke-width:0.8;"/>
   </g>
   <g id="patch_6">
    <path d="M 57.6 41.472 
L 414.72 41.472 
" style="fill:none;stroke:#000000;stroke-linecap:square;stroke-linejoin:miter;stroke-width:0.8;"/>
   </g>
   <g id="text_7">
    <!-- Drug Projection Degree Distribution -->
    <g transform="translate(129.23625 35.472)scale(0.12 -0.12)">
     <defs>
      <path d="M 1259 4147 
L 1259 2394 
L 2053 2394 
Q 2494 2394 2734 2622 
Q 2975 2850 2975 3272 
Q 2975 3691 2734 3919 
Q 2494 4147 2053 4147 
L 1259 4147 
z
M 628 4666 
L 2053 4666 
Q 2838 4666 3239 4311 
Q 3641 3956 3641 3272 
Q 3641 2581 3239 2228 
Q 2838 1875 2053 1875 
L 1259 1875 
L 1259 0 
L 628 0 
L 628 4666 
z
" id="DejaVuSans-50" transform="scale(0.015625)"/>
      <path d="M 603 3500 
L 1178 3500 
L 1178 -63 
Q 1178 -731 923 -1031 
Q 669 -1331 103 -1331 
L -116 -1331 
L -116 -844 
L 38 -844 
Q 366 -844 484 -692 
Q 603 -541 603 -63 
L 603 3500 
z
M 603 4863 
L 1178 4863 
L 1178 4134 
L 603 4134 
L 603 4863 
z
" id="DejaVuSans-6a" transform="scale(0.015625)"/>
      <path d="M 3116 1747 
Q 3116 2381 2855 2742 
Q 2594 3103 2138 3103 
Q 1681 3103 1420 2742 
Q 1159 2381 1159 1747 
Q 1159 1113 1420 752 
Q 1681 391 2138 391 
Q 2594 391 2855 752 
Q 3116 1113 3116 1747 
z
M 1159 2969 
Q 1341 3281 1617 3432 
Q 1894 3584 2278 3584 
Q 2916 3584 3314 3078 
Q 3713 2572 3713 1747 
Q 3713 922 3314 415 
Q 2916 -91 2278 -91 
Q 1894 -91 1617 61 
Q 1341 213 1159 525 
L 1159 0 
L 581 0 
L 581 4863 
L 1159 4863 
L 1159 2969 
z
" id="DejaVuSans-62" transform="scale(0.015625)"/>
     </defs>
     <use xlink:href="#DejaVuSans-44"/>
     <use x="77.001953" xlink:href="#DejaVuSans-72"/>
     <use x="118.115234" xlink:href="#DejaVuSans-75"/>
     <use x="181.494141" xlink:href="#DejaVuSans-67"/>
     <use x="244.970703" xlink:href="#DejaVuSans-20"/>
     <use x="276.757812" xlink:href="#DejaVuSans-50"/>
     <use x="335.310547" xlink:href="#DejaVuSans-72"/>
     <use x="374.173828" xlink:href="#DejaVuSans-6f"/>
     <use x="435.355469" xlink:href="#DejaVuSans-6a"/>
     <use x="463.138672" xlink:href="#DejaVuSans-65"/>
     <use x="524.662109" xlink:href="#DejaVuSans-63"/>
     <use x="579.642578" xlink:href="#DejaVuSans-74"/>
     <use x="618.851562" xlink:href="#DejaVuSans-69"/>
     <use x="646.634766" xlink:href="#DejaVuSans-6f"/>
     <use x="707.816406" xlink:href="#DejaVuSans-6e"/>
     <use x="771.195312" xlink:href="#DejaVuSans-20"/>
     <use x="802.982422" xlink:href="#DejaVuSans-44"/>
     <use x="879.984375" xlink:href="#DejaVuSans-65"/>
     <use x="941.507812" xlink:href="#DejaVuSans-67"/>
     <use x="1004.984375" xlink:href="#DejaVuSans-72"/>
     <use x="1043.847656" xlink:href="#DejaVuSans-65"/>
     <use x="1105.371094" xlink:href="#DejaVuSans-65"/>
     <use x="1166.894531" xlink:href="#DejaVuSans-20"/>
     <use x="1198.681641" xlink:href="#DejaVuSans-44"/>
     <use x="1275.683594" xlink:href="#DejaVuSans-69"/>
     <use x="1303.466797" xlink:href="#DejaVuSans-73"/>
     <use x="1355.566406" xlink:href="#DejaVuSans-74"/>
     <use x="1394.775391" xlink:href="#DejaVuSans-72"/>
     <use x="1435.888672" xlink:href="#DejaVuSans-69"/>
     <use x="1463.671875" xlink:href="#DejaVuSans-62"/>
     <use x="1527.148438" xlink:href="#DejaVuSans-75"/>
     <use x="1590.527344" xlink:href="#DejaVuSans-74"/>
     <use x="1629.736328" xlink:href="#DejaVuSans-69"/>
     <use x="1657.519531" xlink:href="#DejaVuSans-6f"/>
     <use x="1718.701172" xlink:href="#DejaVuSans-6e"/>
    </g>
   </g>
   <g id="legend_1">
    <g id="patch_7">
     <path d="M 188.874125 398.56265 
L 336.296 398.56265 
Q 338.296 398.56265 338.296 396.56265 
L 338.296 367.8064 
Q 338.296 365.8064 336.296 365.8064 
L 188.874125 365.8064 
Q 186.874125 365.8064 186.874125 367.8064 
L 186.874125 396.56265 
Q 186.874125 398.56265 188.874125 398.56265 
z
" style="fill:#ffffff;opacity:0.8;stroke:#cccccc;stroke-linejoin:miter;"/>
    </g>
    <g id="PathCollection_3">
     <g>
      <use style="fill:#ff6347;fill-opacity:0.6;stroke:#ff6347;stroke-opacity:0.6;" x="200.874125" xlink:href="#m03b2aa3dda" y="374.779837"/>
     </g>
    </g>
    <g id="text_8">
     <!-- Drug Projection -->
     <g transform="translate(218.874125 377.404837)scale(0.1 -0.1)">
      <use xlink:href="#DejaVuSans-44"/>
      <use x="77.001953" xlink:href="#DejaVuSans-72"/>
      <use x="118.115234" xlink:href="#DejaVuSans-75"/>
      <use x="181.494141" xlink:href="#DejaVuSans-67"/>
      <use x="244.970703" xlink:href="#DejaVuSans-20"/>
      <use x="276.757812" xlink:href="#DejaVuSans-50"/>
      <use x="335.310547" xlink:href="#DejaVuSans-72"/>
      <use x="374.173828" xlink:href="#DejaVuSans-6f"/>
      <use x="435.355469" xlink:href="#DejaVuSans-6a"/>
      <use x="463.138672" xlink:href="#DejaVuSans-65"/>
      <use x="524.662109" xlink:href="#DejaVuSans-63"/>
      <use x="579.642578" xlink:href="#DejaVuSans-74"/>
      <use x="618.851562" xlink:href="#DejaVuSans-69"/>
      <use x="646.634766" xlink:href="#DejaVuSans-6f"/>
      <use x="707.816406" xlink:href="#DejaVuSans-6e"/>
     </g>
    </g>
    <g id="PathCollection_4">
     <g>
      <use style="fill:#00bfff;fill-opacity:0.6;stroke:#00bfff;stroke-opacity:0.6;" x="200.874125" xlink:href="#m58884e028c" y="389.857962"/>
     </g>
    </g>
    <g id="text_9">
     <!-- Erdős-Rényi Equivalent -->
     <g transform="translate(218.874125 392.482962)scale(0.1 -0.1)">
      <defs>
       <path d="M 628 4666 
L 3578 4666 
L 3578 4134 
L 1259 4134 
L 1259 2753 
L 3481 2753 
L 3481 2222 
L 1259 2222 
L 1259 531 
L 3634 531 
L 3634 0 
L 628 0 
L 628 4666 
z
" id="DejaVuSans-45" transform="scale(0.015625)"/>
       <path d="M 2892 5119 
L 3448 5119 
L 2673 3944 
L 2251 3944 
L 2892 5119 
z
M 1848 5119 
L 2379 5119 
L 1682 3944 
L 1254 3944 
L 1848 5119 
z
M 1959 3097 
Q 1497 3097 1228 2736 
Q 959 2375 959 1747 
Q 959 1119 1226 758 
Q 1494 397 1959 397 
Q 2419 397 2687 759 
Q 2956 1122 2956 1747 
Q 2956 2369 2687 2733 
Q 2419 3097 1959 3097 
z
M 1959 3584 
Q 2709 3584 3137 3096 
Q 3566 2609 3566 1747 
Q 3566 888 3137 398 
Q 2709 -91 1959 -91 
Q 1206 -91 779 398 
Q 353 888 353 1747 
Q 353 2609 779 3096 
Q 1206 3584 1959 3584 
z
" id="DejaVuSans-151" transform="scale(0.015625)"/>
       <path d="M 313 2009 
L 1997 2009 
L 1997 1497 
L 313 1497 
L 313 2009 
z
" id="DejaVuSans-2d" transform="scale(0.015625)"/>
       <path d="M 2841 2188 
Q 3044 2119 3236 1894 
Q 3428 1669 3622 1275 
L 4263 0 
L 3584 0 
L 2988 1197 
Q 2756 1666 2539 1819 
Q 2322 1972 1947 1972 
L 1259 1972 
L 1259 0 
L 628 0 
L 628 4666 
L 2053 4666 
Q 2853 4666 3247 4331 
Q 3641 3997 3641 3322 
Q 3641 2881 3436 2590 
Q 3231 2300 2841 2188 
z
M 1259 4147 
L 1259 2491 
L 2053 2491 
Q 2509 2491 2742 2702 
Q 2975 2913 2975 3322 
Q 2975 3731 2742 3939 
Q 2509 4147 2053 4147 
L 1259 4147 
z
" id="DejaVuSans-52" transform="scale(0.015625)"/>
       <path d="M 3597 1894 
L 3597 1613 
L 953 1613 
Q 991 1019 1311 708 
Q 1631 397 2203 397 
Q 2534 397 2845 478 
Q 3156 559 3463 722 
L 3463 178 
Q 3153 47 2828 -22 
Q 2503 -91 2169 -91 
Q 1331 -91 842 396 
Q 353 884 353 1716 
Q 353 2575 817 3079 
Q 1281 3584 2069 3584 
Q 2775 3584 3186 3129 
Q 3597 2675 3597 1894 
z
M 3022 2063 
Q 3016 2534 2758 2815 
Q 2500 3097 2075 3097 
Q 1594 3097 1305 2825 
Q 1016 2553 972 2059 
L 3022 2063 
z
M 2466 5119 
L 3088 5119 
L 2070 3944 
L 1591 3944 
L 2466 5119 
z
" id="DejaVuSans-e9" transform="scale(0.015625)"/>
       <path d="M 191 3500 
L 800 3500 
L 1894 563 
L 2988 3500 
L 3597 3500 
L 2284 0 
L 1503 0 
L 191 3500 
z
" id="DejaVuSans-76" transform="scale(0.015625)"/>
       <path d="M 2194 1759 
Q 1497 1759 1228 1600 
Q 959 1441 959 1056 
Q 959 750 1161 570 
Q 1363 391 1709 391 
Q 2188 391 2477 730 
Q 2766 1069 2766 1631 
L 2766 1759 
L 2194 1759 
z
M 3341 1997 
L 3341 0 
L 2766 0 
L 2766 531 
Q 2569 213 2275 61 
Q 1981 -91 1556 -91 
Q 1019 -91 701 211 
Q 384 513 384 1019 
Q 384 1609 779 1909 
Q 1175 2209 1959 2209 
L 2766 2209 
L 2766 2266 
Q 2766 2663 2505 2880 
Q 2244 3097 1772 3097 
Q 1472 3097 1187 3025 
Q 903 2953 641 2809 
L 641 3341 
Q 956 3463 1253 3523 
Q 1550 3584 1831 3584 
Q 2591 3584 2966 3190 
Q 3341 2797 3341 1997 
z
" id="DejaVuSans-61" transform="scale(0.015625)"/>
       <path d="M 603 4863 
L 1178 4863 
L 1178 0 
L 603 0 
L 603 4863 
z
" id="DejaVuSans-6c" transform="scale(0.015625)"/>
      </defs>
      <use xlink:href="#DejaVuSans-45"/>
      <use x="63.183594" xlink:href="#DejaVuSans-72"/>
      <use x="102.546875" xlink:href="#DejaVuSans-64"/>
      <use x="166.023438" xlink:href="#DejaVuSans-151"/>
      <use x="227.205078" xlink:href="#DejaVuSans-73"/>
      <use x="279.304688" xlink:href="#DejaVuSans-2d"/>
      <use x="315.388672" xlink:href="#DejaVuSans-52"/>
      <use x="380.371094" xlink:href="#DejaVuSans-e9"/>
      <use x="441.894531" xlink:href="#DejaVuSans-6e"/>
      <use x="505.273438" xlink:href="#DejaVuSans-79"/>
      <use x="564.453125" xlink:href="#DejaVuSans-69"/>
      <use x="592.236328" xlink:href="#DejaVuSans-20"/>
      <use x="624.023438" xlink:href="#DejaVuSans-45"/>
      <use x="687.207031" xlink:href="#DejaVuSans-71"/>
      <use x="750.683594" xlink:href="#DejaVuSans-75"/>
      <use x="814.0625" xlink:href="#DejaVuSans-69"/>
      <use x="841.845703" xlink:href="#DejaVuSans-76"/>
      <use x="901.025391" xlink:href="#DejaVuSans-61"/>
      <use x="962.304688" xlink:href="#DejaVuSans-6c"/>
      <use x="990.087891" xlink:href="#DejaVuSans-65"/>
      <use x="1051.611328" xlink:href="#DejaVuSans-6e"/>
      <use x="1114.990234" xlink:href="#DejaVuSans-74"/>
     </g>
    </g>
   </g>
  </g>
 </g>
 <defs>
  <clipPath id="pa90530aeae">
   <rect height="266.112" width="357.12" x="57.6" y="41.472"/>
  </clipPath>
 </defs>
</svg>
