<?xml version="1.0" encoding="utf-8" standalone="no"?>
<!DOCTYPE svg PUBLIC "-//W3C//DTD SVG 1.1//EN"
  "http://www.w3.org/Graphics/SVG/1.1/DTD/svg11.dtd">
<!-- Created with matplotlib (https://matplotlib.org/) -->
<svg height="288pt" version="1.1" viewBox="0 0 432 288" width="432pt" xmlns="http://www.w3.org/2000/svg" xmlns:xlink="http://www.w3.org/1999/xlink">
 <metadata>
  <rdf:RDF xmlns:cc="http://creativecommons.org/ns#" xmlns:dc="http://purl.org/dc/elements/1.1/" xmlns:rdf="http://www.w3.org/1999/02/22-rdf-syntax-ns#">
   <cc:Work>
    <dc:type rdf:resource="http://purl.org/dc/dcmitype/StillImage"/>
    <dc:date>2021-01-14T17:29:58.024177</dc:date>
    <dc:format>image/svg+xml</dc:format>
    <dc:creator>
     <cc:Agent>
      <dc:title>Matplotlib v3.3.3, https://matplotlib.org/</dc:title>
     </cc:Agent>
    </dc:creator>
   </cc:Work>
  </rdf:RDF>
 </metadata>
 <defs>
  <style type="text/css">*{stroke-linecap:butt;stroke-linejoin:round;}</style>
 </defs>
 <g id="figure_1">
  <g id="patch_1">
   <path d="M 0 288 
L 432 288 
L 432 0 
L 0 0 
z
" style="fill:none;"/>
  </g>
  <g id="axes_1">
   <g id="patch_2">
    <path d="M 54 252 
L 388.8 252 
L 388.8 34.56 
L 54 34.56 
z
" style="fill:#ffffff;"/>
   </g>
   <g id="PathCollection_1">
    <defs>
     <path d="M 0 3 
C 0.795609 3 1.55874 2.683901 2.12132 2.12132 
C 2.683901 1.55874 3 0.795609 3 0 
C 3 -0.795609 2.683901 -1.55874 2.12132 -2.12132 
C 1.55874 -2.683901 0.795609 -3 0 -3 
C -0.795609 -3 -1.55874 -2.683901 -2.12132 -2.12132 
C -2.683901 -1.55874 -3 -0.795609 -3 0 
C -3 0.795609 -2.683901 1.55874 -2.12132 2.12132 
C -1.55874 2.683901 -0.795609 3 0 3 
z
" id="mc1080368bc" style="stroke:#ff6347;stroke-opacity:0.6;"/>
    </defs>
    <g clip-path="url(#pe48fc8ac7e)">
     <use style="fill:#ff6347;fill-opacity:0.6;stroke:#ff6347;stroke-opacity:0.6;" x="-1" xlink:href="#mc1080368bc" y="70.616035"/>
     <use style="fill:#ff6347;fill-opacity:0.6;stroke:#ff6347;stroke-opacity:0.6;" x="75.776906" xlink:href="#mc1080368bc" y="70.627172"/>
     <use style="fill:#ff6347;fill-opacity:0.6;stroke:#ff6347;stroke-opacity:0.6;" x="128.246636" xlink:href="#mc1080368bc" y="70.627172"/>
     <use style="fill:#ff6347;fill-opacity:0.6;stroke:#ff6347;stroke-opacity:0.6;" x="158.939461" xlink:href="#mc1080368bc" y="84.528558"/>
     <use style="fill:#ff6347;fill-opacity:0.6;stroke:#ff6347;stroke-opacity:0.6;" x="180.716367" xlink:href="#mc1080368bc" y="95.817305"/>
     <use style="fill:#ff6347;fill-opacity:0.6;stroke:#ff6347;stroke-opacity:0.6;" x="197.607847" xlink:href="#mc1080368bc" y="137.615749"/>
     <use style="fill:#ff6347;fill-opacity:0.6;stroke:#ff6347;stroke-opacity:0.6;" x="211.409192" xlink:href="#mc1080368bc" y="122.227414"/>
     <use style="fill:#ff6347;fill-opacity:0.6;stroke:#ff6347;stroke-opacity:0.6;" x="223.078062" xlink:href="#mc1080368bc" y="151.517135"/>
     <use style="fill:#ff6347;fill-opacity:0.6;stroke:#ff6347;stroke-opacity:0.6;" x="233.186098" xlink:href="#mc1080368bc" y="104.121461"/>
     <use style="fill:#ff6347;fill-opacity:0.6;stroke:#ff6347;stroke-opacity:0.6;" x="242.102017" xlink:href="#mc1080368bc" y="126.832997"/>
     <use style="fill:#ff6347;fill-opacity:0.6;stroke:#ff6347;stroke-opacity:0.6;" x="250.077578" xlink:href="#mc1080368bc" y="160.327285"/>
     <use style="fill:#ff6347;fill-opacity:0.6;stroke:#ff6347;stroke-opacity:0.6;" x="257.292351" xlink:href="#mc1080368bc" y="204.604326"/>
     <use style="fill:#ff6347;fill-opacity:0.6;stroke:#ff6347;stroke-opacity:0.6;" x="263.878922" xlink:href="#mc1080368bc" y="110.57397"/>
     <use style="fill:#ff6347;fill-opacity:0.6;stroke:#ff6347;stroke-opacity:0.6;" x="269.937981" xlink:href="#mc1080368bc" y="137.615749"/>
     <use style="fill:#ff6347;fill-opacity:0.6;stroke:#ff6347;stroke-opacity:0.6;" x="275.547793" xlink:href="#mc1080368bc" y="160.327285"/>
     <use style="fill:#ff6347;fill-opacity:0.6;stroke:#ff6347;stroke-opacity:0.6;" x="280.770403" xlink:href="#mc1080368bc" y="185.011423"/>
     <use style="fill:#ff6347;fill-opacity:0.6;stroke:#ff6347;stroke-opacity:0.6;" x="285.655828" xlink:href="#mc1080368bc" y="185.011423"/>
     <use style="fill:#ff6347;fill-opacity:0.6;stroke:#ff6347;stroke-opacity:0.6;" x="290.24498" xlink:href="#mc1080368bc" y="238.098614"/>
     <use style="fill:#ff6347;fill-opacity:0.6;stroke:#ff6347;stroke-opacity:0.6;" x="294.571747" xlink:href="#mc1080368bc" y="204.604326"/>
     <use style="fill:#ff6347;fill-opacity:0.6;stroke:#ff6347;stroke-opacity:0.6;" x="298.664518" xlink:href="#mc1080368bc" y="185.011423"/>
     <use style="fill:#ff6347;fill-opacity:0.6;stroke:#ff6347;stroke-opacity:0.6;" x="302.547309" xlink:href="#mc1080368bc" y="185.011423"/>
     <use style="fill:#ff6347;fill-opacity:0.6;stroke:#ff6347;stroke-opacity:0.6;" x="306.240618" xlink:href="#mc1080368bc" y="204.604326"/>
     <use style="fill:#ff6347;fill-opacity:0.6;stroke:#ff6347;stroke-opacity:0.6;" x="309.762081" xlink:href="#mc1080368bc" y="204.604326"/>
     <use style="fill:#ff6347;fill-opacity:0.6;stroke:#ff6347;stroke-opacity:0.6;" x="319.438789" xlink:href="#mc1080368bc" y="185.011423"/>
     <use style="fill:#ff6347;fill-opacity:0.6;stroke:#ff6347;stroke-opacity:0.6;" x="322.407711" xlink:href="#mc1080368bc" y="238.098614"/>
     <use style="fill:#ff6347;fill-opacity:0.6;stroke:#ff6347;stroke-opacity:0.6;" x="325.264572" xlink:href="#mc1080368bc" y="238.098614"/>
     <use style="fill:#ff6347;fill-opacity:0.6;stroke:#ff6347;stroke-opacity:0.6;" x="328.017523" xlink:href="#mc1080368bc" y="204.604326"/>
     <use style="fill:#ff6347;fill-opacity:0.6;stroke:#ff6347;stroke-opacity:0.6;" x="333.240133" xlink:href="#mc1080368bc" y="204.604326"/>
     <use style="fill:#ff6347;fill-opacity:0.6;stroke:#ff6347;stroke-opacity:0.6;" x="342.71471" xlink:href="#mc1080368bc" y="238.098614"/>
     <use style="fill:#ff6347;fill-opacity:0.6;stroke:#ff6347;stroke-opacity:0.6;" x="344.909004" xlink:href="#mc1080368bc" y="238.098614"/>
     <use style="fill:#ff6347;fill-opacity:0.6;stroke:#ff6347;stroke-opacity:0.6;" x="371.90852" xlink:href="#mc1080368bc" y="204.604326"/>
    </g>
   </g>
   <g id="PathCollection_2">
    <defs>
     <path d="M 0 3 
C 0.795609 3 1.55874 2.683901 2.12132 2.12132 
C 2.683901 1.55874 3 0.795609 3 0 
C 3 -0.795609 2.683901 -1.55874 2.12132 -2.12132 
C 1.55874 -2.683901 0.795609 -3 0 -3 
C -0.795609 -3 -1.55874 -2.683901 -2.12132 -2.12132 
C -2.683901 -1.55874 -3 -0.795609 -3 0 
C -3 0.795609 -2.683901 1.55874 -2.12132 2.12132 
C -1.55874 2.683901 -0.795609 3 0 3 
z
" id="m042f4ed82e" style="stroke:#00bfff;stroke-opacity:0.6;"/>
    </defs>
    <g clip-path="url(#pe48fc8ac7e)">
     <use style="fill:#00bfff;fill-opacity:0.6;stroke:#00bfff;stroke-opacity:0.6;" x="75.776906" xlink:href="#m042f4ed82e" y="204.604326"/>
     <use style="fill:#00bfff;fill-opacity:0.6;stroke:#00bfff;stroke-opacity:0.6;" x="128.246636" xlink:href="#m042f4ed82e" y="122.227414"/>
     <use style="fill:#00bfff;fill-opacity:0.6;stroke:#00bfff;stroke-opacity:0.6;" x="158.939461" xlink:href="#m042f4ed82e" y="101.191955"/>
     <use style="fill:#00bfff;fill-opacity:0.6;stroke:#00bfff;stroke-opacity:0.6;" x="180.716367" xlink:href="#m042f4ed82e" y="77.079682"/>
     <use style="fill:#00bfff;fill-opacity:0.6;stroke:#00bfff;stroke-opacity:0.6;" x="197.607847" xlink:href="#m042f4ed82e" y="53.090837"/>
     <use style="fill:#00bfff;fill-opacity:0.6;stroke:#00bfff;stroke-opacity:0.6;" x="211.409192" xlink:href="#m042f4ed82e" y="45.342752"/>
     <use style="fill:#00bfff;fill-opacity:0.6;stroke:#00bfff;stroke-opacity:0.6;" x="223.078062" xlink:href="#m042f4ed82e" y="55.238837"/>
     <use style="fill:#00bfff;fill-opacity:0.6;stroke:#00bfff;stroke-opacity:0.6;" x="233.186098" xlink:href="#m042f4ed82e" y="86.585125"/>
     <use style="fill:#00bfff;fill-opacity:0.6;stroke:#00bfff;stroke-opacity:0.6;" x="242.102017" xlink:href="#m042f4ed82e" y="93.338708"/>
     <use style="fill:#00bfff;fill-opacity:0.6;stroke:#00bfff;stroke-opacity:0.6;" x="250.077578" xlink:href="#m042f4ed82e" y="104.121461"/>
     <use style="fill:#00bfff;fill-opacity:0.6;stroke:#00bfff;stroke-opacity:0.6;" x="257.292351" xlink:href="#m042f4ed82e" y="118.022846"/>
     <use style="fill:#00bfff;fill-opacity:0.6;stroke:#00bfff;stroke-opacity:0.6;" x="263.878922" xlink:href="#m042f4ed82e" y="238.098614"/>
     <use style="fill:#00bfff;fill-opacity:0.6;stroke:#00bfff;stroke-opacity:0.6;" x="269.937981" xlink:href="#m042f4ed82e" y="185.011423"/>
     <use style="fill:#00bfff;fill-opacity:0.6;stroke:#00bfff;stroke-opacity:0.6;" x="275.547793" xlink:href="#m042f4ed82e" y="238.098614"/>
    </g>
   </g>
   <g id="matplotlib.axis_1">
    <g id="xtick_1">
     <g id="line2d_1">
      <defs>
       <path d="M 0 0 
L 0 3.5 
" id="m961e272739" style="stroke:#000000;stroke-width:0.8;"/>
      </defs>
      <g>
       <use style="stroke:#000000;stroke-width:0.8;" x="75.776906" xlink:href="#m961e272739" y="252"/>
      </g>
     </g>
     <g id="text_1">
      <!-- $\mathdefault{10^{0}}$ -->
      <g transform="translate(66.976906 266.598437)scale(0.1 -0.1)">
       <defs>
        <path d="M 12.40625 8.296875 
L 28.515625 8.296875 
L 28.515625 63.921875 
L 10.984375 60.40625 
L 10.984375 69.390625 
L 28.421875 72.90625 
L 38.28125 72.90625 
L 38.28125 8.296875 
L 54.390625 8.296875 
L 54.390625 0 
L 12.40625 0 
z
" id="DejaVuSans-49"/>
        <path d="M 31.78125 66.40625 
Q 24.171875 66.40625 20.328125 58.90625 
Q 16.5 51.421875 16.5 36.375 
Q 16.5 21.390625 20.328125 13.890625 
Q 24.171875 6.390625 31.78125 6.390625 
Q 39.453125 6.390625 43.28125 13.890625 
Q 47.125 21.390625 47.125 36.375 
Q 47.125 51.421875 43.28125 58.90625 
Q 39.453125 66.40625 31.78125 66.40625 
z
M 31.78125 74.21875 
Q 44.046875 74.21875 50.515625 64.515625 
Q 56.984375 54.828125 56.984375 36.375 
Q 56.984375 17.96875 50.515625 8.265625 
Q 44.046875 -1.421875 31.78125 -1.421875 
Q 19.53125 -1.421875 13.0625 8.265625 
Q 6.59375 17.96875 6.59375 36.375 
Q 6.59375 54.828125 13.0625 64.515625 
Q 19.53125 74.21875 31.78125 74.21875 
z
" id="DejaVuSans-48"/>
       </defs>
       <use transform="translate(0 0.765625)" xlink:href="#DejaVuSans-49"/>
       <use transform="translate(63.623047 0.765625)" xlink:href="#DejaVuSans-48"/>
       <use transform="translate(128.203125 39.046875)scale(0.7)" xlink:href="#DejaVuSans-48"/>
      </g>
     </g>
    </g>
    <g id="xtick_2">
     <g id="line2d_2">
      <g>
       <use style="stroke:#000000;stroke-width:0.8;" x="250.077578" xlink:href="#m961e272739" y="252"/>
      </g>
     </g>
     <g id="text_2">
      <!-- $\mathdefault{10^{1}}$ -->
      <g transform="translate(241.277578 266.598437)scale(0.1 -0.1)">
       <use transform="translate(0 0.684375)" xlink:href="#DejaVuSans-49"/>
       <use transform="translate(63.623047 0.684375)" xlink:href="#DejaVuSans-48"/>
       <use transform="translate(128.203125 38.965625)scale(0.7)" xlink:href="#DejaVuSans-49"/>
      </g>
     </g>
    </g>
    <g id="xtick_3">
     <g id="line2d_3">
      <defs>
       <path d="M 0 0 
L 0 2 
" id="mcfd6d1e426" style="stroke:#000000;stroke-width:0.6;"/>
      </defs>
      <g>
       <use style="stroke:#000000;stroke-width:0.6;" x="58.885425" xlink:href="#mcfd6d1e426" y="252"/>
      </g>
     </g>
    </g>
    <g id="xtick_4">
     <g id="line2d_4">
      <g>
       <use style="stroke:#000000;stroke-width:0.6;" x="67.801344" xlink:href="#mcfd6d1e426" y="252"/>
      </g>
     </g>
    </g>
    <g id="xtick_5">
     <g id="line2d_5">
      <g>
       <use style="stroke:#000000;stroke-width:0.6;" x="128.246636" xlink:href="#mcfd6d1e426" y="252"/>
      </g>
     </g>
    </g>
    <g id="xtick_6">
     <g id="line2d_6">
      <g>
       <use style="stroke:#000000;stroke-width:0.6;" x="158.939461" xlink:href="#mcfd6d1e426" y="252"/>
      </g>
     </g>
    </g>
    <g id="xtick_7">
     <g id="line2d_7">
      <g>
       <use style="stroke:#000000;stroke-width:0.6;" x="180.716367" xlink:href="#mcfd6d1e426" y="252"/>
      </g>
     </g>
    </g>
    <g id="xtick_8">
     <g id="line2d_8">
      <g>
       <use style="stroke:#000000;stroke-width:0.6;" x="197.607847" xlink:href="#mcfd6d1e426" y="252"/>
      </g>
     </g>
    </g>
    <g id="xtick_9">
     <g id="line2d_9">
      <g>
       <use style="stroke:#000000;stroke-width:0.6;" x="211.409192" xlink:href="#mcfd6d1e426" y="252"/>
      </g>
     </g>
    </g>
    <g id="xtick_10">
     <g id="line2d_10">
      <g>
       <use style="stroke:#000000;stroke-width:0.6;" x="223.078062" xlink:href="#mcfd6d1e426" y="252"/>
      </g>
     </g>
    </g>
    <g id="xtick_11">
     <g id="line2d_11">
      <g>
       <use style="stroke:#000000;stroke-width:0.6;" x="233.186098" xlink:href="#mcfd6d1e426" y="252"/>
      </g>
     </g>
    </g>
    <g id="xtick_12">
     <g id="line2d_12">
      <g>
       <use style="stroke:#000000;stroke-width:0.6;" x="242.102017" xlink:href="#mcfd6d1e426" y="252"/>
      </g>
     </g>
    </g>
    <g id="xtick_13">
     <g id="line2d_13">
      <g>
       <use style="stroke:#000000;stroke-width:0.6;" x="302.547309" xlink:href="#mcfd6d1e426" y="252"/>
      </g>
     </g>
    </g>
    <g id="xtick_14">
     <g id="line2d_14">
      <g>
       <use style="stroke:#000000;stroke-width:0.6;" x="333.240133" xlink:href="#mcfd6d1e426" y="252"/>
      </g>
     </g>
    </g>
    <g id="xtick_15">
     <g id="line2d_15">
      <g>
       <use style="stroke:#000000;stroke-width:0.6;" x="355.017039" xlink:href="#mcfd6d1e426" y="252"/>
      </g>
     </g>
    </g>
    <g id="xtick_16">
     <g id="line2d_16">
      <g>
       <use style="stroke:#000000;stroke-width:0.6;" x="371.90852" xlink:href="#mcfd6d1e426" y="252"/>
      </g>
     </g>
    </g>
    <g id="xtick_17">
     <g id="line2d_17">
      <g>
       <use style="stroke:#000000;stroke-width:0.6;" x="385.709864" xlink:href="#mcfd6d1e426" y="252"/>
      </g>
     </g>
    </g>
    <g id="text_3">
     <!-- Degree, k -->
     <g transform="translate(197.129687 280.276563)scale(0.1 -0.1)">
      <defs>
       <path d="M 19.671875 64.796875 
L 19.671875 8.109375 
L 31.59375 8.109375 
Q 46.6875 8.109375 53.6875 14.9375 
Q 60.6875 21.78125 60.6875 36.53125 
Q 60.6875 51.171875 53.6875 57.984375 
Q 46.6875 64.796875 31.59375 64.796875 
z
M 9.8125 72.90625 
L 30.078125 72.90625 
Q 51.265625 72.90625 61.171875 64.09375 
Q 71.09375 55.28125 71.09375 36.53125 
Q 71.09375 17.671875 61.125 8.828125 
Q 51.171875 0 30.078125 0 
L 9.8125 0 
z
" id="DejaVuSans-68"/>
       <path d="M 56.203125 29.59375 
L 56.203125 25.203125 
L 14.890625 25.203125 
Q 15.484375 15.921875 20.484375 11.0625 
Q 25.484375 6.203125 34.421875 6.203125 
Q 39.59375 6.203125 44.453125 7.46875 
Q 49.3125 8.734375 54.109375 11.28125 
L 54.109375 2.78125 
Q 49.265625 0.734375 44.1875 -0.34375 
Q 39.109375 -1.421875 33.890625 -1.421875 
Q 20.796875 -1.421875 13.15625 6.1875 
Q 5.515625 13.8125 5.515625 26.8125 
Q 5.515625 40.234375 12.765625 48.109375 
Q 20.015625 56 32.328125 56 
Q 43.359375 56 49.78125 48.890625 
Q 56.203125 41.796875 56.203125 29.59375 
z
M 47.21875 32.234375 
Q 47.125 39.59375 43.09375 43.984375 
Q 39.0625 48.390625 32.421875 48.390625 
Q 24.90625 48.390625 20.390625 44.140625 
Q 15.875 39.890625 15.1875 32.171875 
z
" id="DejaVuSans-101"/>
       <path d="M 45.40625 27.984375 
Q 45.40625 37.75 41.375 43.109375 
Q 37.359375 48.484375 30.078125 48.484375 
Q 22.859375 48.484375 18.828125 43.109375 
Q 14.796875 37.75 14.796875 27.984375 
Q 14.796875 18.265625 18.828125 12.890625 
Q 22.859375 7.515625 30.078125 7.515625 
Q 37.359375 7.515625 41.375 12.890625 
Q 45.40625 18.265625 45.40625 27.984375 
z
M 54.390625 6.78125 
Q 54.390625 -7.171875 48.1875 -13.984375 
Q 42 -20.796875 29.203125 -20.796875 
Q 24.46875 -20.796875 20.265625 -20.09375 
Q 16.0625 -19.390625 12.109375 -17.921875 
L 12.109375 -9.1875 
Q 16.0625 -11.328125 19.921875 -12.34375 
Q 23.78125 -13.375 27.78125 -13.375 
Q 36.625 -13.375 41.015625 -8.765625 
Q 45.40625 -4.15625 45.40625 5.171875 
L 45.40625 9.625 
Q 42.625 4.78125 38.28125 2.390625 
Q 33.9375 0 27.875 0 
Q 17.828125 0 11.671875 7.65625 
Q 5.515625 15.328125 5.515625 27.984375 
Q 5.515625 40.671875 11.671875 48.328125 
Q 17.828125 56 27.875 56 
Q 33.9375 56 38.28125 53.609375 
Q 42.625 51.21875 45.40625 46.390625 
L 45.40625 54.6875 
L 54.390625 54.6875 
z
" id="DejaVuSans-103"/>
       <path d="M 41.109375 46.296875 
Q 39.59375 47.171875 37.8125 47.578125 
Q 36.03125 48 33.890625 48 
Q 26.265625 48 22.1875 43.046875 
Q 18.109375 38.09375 18.109375 28.8125 
L 18.109375 0 
L 9.078125 0 
L 9.078125 54.6875 
L 18.109375 54.6875 
L 18.109375 46.1875 
Q 20.953125 51.171875 25.484375 53.578125 
Q 30.03125 56 36.53125 56 
Q 37.453125 56 38.578125 55.875 
Q 39.703125 55.765625 41.0625 55.515625 
z
" id="DejaVuSans-114"/>
       <path d="M 11.71875 12.40625 
L 22.015625 12.40625 
L 22.015625 4 
L 14.015625 -11.625 
L 7.71875 -11.625 
L 11.71875 4 
z
" id="DejaVuSans-44"/>
       <path id="DejaVuSans-32"/>
       <path d="M 9.078125 75.984375 
L 18.109375 75.984375 
L 18.109375 31.109375 
L 44.921875 54.6875 
L 56.390625 54.6875 
L 27.390625 29.109375 
L 57.625 0 
L 45.90625 0 
L 18.109375 26.703125 
L 18.109375 0 
L 9.078125 0 
z
" id="DejaVuSans-107"/>
      </defs>
      <use xlink:href="#DejaVuSans-68"/>
      <use x="77.001953" xlink:href="#DejaVuSans-101"/>
      <use x="138.525391" xlink:href="#DejaVuSans-103"/>
      <use x="202.001953" xlink:href="#DejaVuSans-114"/>
      <use x="240.865234" xlink:href="#DejaVuSans-101"/>
      <use x="302.388672" xlink:href="#DejaVuSans-101"/>
      <use x="363.912109" xlink:href="#DejaVuSans-44"/>
      <use x="395.699219" xlink:href="#DejaVuSans-32"/>
      <use x="427.486328" xlink:href="#DejaVuSans-107"/>
     </g>
    </g>
   </g>
   <g id="matplotlib.axis_2">
    <g id="ytick_1">
     <g id="line2d_18">
      <defs>
       <path d="M 0 0 
L -3.5 0 
" id="m1ff1d7143c" style="stroke:#000000;stroke-width:0.8;"/>
      </defs>
      <g>
       <use style="stroke:#000000;stroke-width:0.8;" x="54" xlink:href="#m1ff1d7143c" y="188.691696"/>
      </g>
     </g>
     <g id="text_4">
      <!-- $\mathdefault{10^{-2}}$ -->
      <g transform="translate(23.5 192.490915)scale(0.1 -0.1)">
       <defs>
        <path d="M 10.59375 35.5 
L 73.1875 35.5 
L 73.1875 27.203125 
L 10.59375 27.203125 
z
" id="DejaVuSans-8722"/>
        <path d="M 19.1875 8.296875 
L 53.609375 8.296875 
L 53.609375 0 
L 7.328125 0 
L 7.328125 8.296875 
Q 12.9375 14.109375 22.625 23.890625 
Q 32.328125 33.6875 34.8125 36.53125 
Q 39.546875 41.84375 41.421875 45.53125 
Q 43.3125 49.21875 43.3125 52.78125 
Q 43.3125 58.59375 39.234375 62.25 
Q 35.15625 65.921875 28.609375 65.921875 
Q 23.96875 65.921875 18.8125 64.3125 
Q 13.671875 62.703125 7.8125 59.421875 
L 7.8125 69.390625 
Q 13.765625 71.78125 18.9375 73 
Q 24.125 74.21875 28.421875 74.21875 
Q 39.75 74.21875 46.484375 68.546875 
Q 53.21875 62.890625 53.21875 53.421875 
Q 53.21875 48.921875 51.53125 44.890625 
Q 49.859375 40.875 45.40625 35.40625 
Q 44.1875 33.984375 37.640625 27.21875 
Q 31.109375 20.453125 19.1875 8.296875 
z
" id="DejaVuSans-50"/>
       </defs>
       <use transform="translate(0 0.765625)" xlink:href="#DejaVuSans-49"/>
       <use transform="translate(63.623047 0.765625)" xlink:href="#DejaVuSans-48"/>
       <use transform="translate(128.203125 39.046875)scale(0.7)" xlink:href="#DejaVuSans-8722"/>
       <use transform="translate(186.855469 39.046875)scale(0.7)" xlink:href="#DejaVuSans-50"/>
      </g>
     </g>
    </g>
    <g id="ytick_2">
     <g id="line2d_19">
      <g>
       <use style="stroke:#000000;stroke-width:0.8;" x="54" xlink:href="#m1ff1d7143c" y="77.426078"/>
      </g>
     </g>
     <g id="text_5">
      <!-- $\mathdefault{10^{-1}}$ -->
      <g transform="translate(23.5 81.225297)scale(0.1 -0.1)">
       <use transform="translate(0 0.684375)" xlink:href="#DejaVuSans-49"/>
       <use transform="translate(63.623047 0.684375)" xlink:href="#DejaVuSans-48"/>
       <use transform="translate(128.203125 38.965625)scale(0.7)" xlink:href="#DejaVuSans-8722"/>
       <use transform="translate(186.855469 38.965625)scale(0.7)" xlink:href="#DejaVuSans-49"/>
      </g>
     </g>
    </g>
    <g id="ytick_3">
     <g id="line2d_20">
      <defs>
       <path d="M 0 0 
L -2 0 
" id="m73687819b3" style="stroke:#000000;stroke-width:0.6;"/>
      </defs>
      <g>
       <use style="stroke:#000000;stroke-width:0.6;" x="54" xlink:href="#m73687819b3" y="246.870122"/>
      </g>
     </g>
    </g>
    <g id="ytick_4">
     <g id="line2d_21">
      <g>
       <use style="stroke:#000000;stroke-width:0.6;" x="54" xlink:href="#m73687819b3" y="232.968737"/>
      </g>
     </g>
    </g>
    <g id="ytick_5">
     <g id="line2d_22">
      <g>
       <use style="stroke:#000000;stroke-width:0.6;" x="54" xlink:href="#m73687819b3" y="222.185984"/>
      </g>
     </g>
    </g>
    <g id="ytick_6">
     <g id="line2d_23">
      <g>
       <use style="stroke:#000000;stroke-width:0.6;" x="54" xlink:href="#m73687819b3" y="213.375834"/>
      </g>
     </g>
    </g>
    <g id="ytick_7">
     <g id="line2d_24">
      <g>
       <use style="stroke:#000000;stroke-width:0.6;" x="54" xlink:href="#m73687819b3" y="205.926958"/>
      </g>
     </g>
    </g>
    <g id="ytick_8">
     <g id="line2d_25">
      <g>
       <use style="stroke:#000000;stroke-width:0.6;" x="54" xlink:href="#m73687819b3" y="199.474448"/>
      </g>
     </g>
    </g>
    <g id="ytick_9">
     <g id="line2d_26">
      <g>
       <use style="stroke:#000000;stroke-width:0.6;" x="54" xlink:href="#m73687819b3" y="193.782931"/>
      </g>
     </g>
    </g>
    <g id="ytick_10">
     <g id="line2d_27">
      <g>
       <use style="stroke:#000000;stroke-width:0.6;" x="54" xlink:href="#m73687819b3" y="155.197407"/>
      </g>
     </g>
    </g>
    <g id="ytick_11">
     <g id="line2d_28">
      <g>
       <use style="stroke:#000000;stroke-width:0.6;" x="54" xlink:href="#m73687819b3" y="135.604505"/>
      </g>
     </g>
    </g>
    <g id="ytick_12">
     <g id="line2d_29">
      <g>
       <use style="stroke:#000000;stroke-width:0.6;" x="54" xlink:href="#m73687819b3" y="121.703119"/>
      </g>
     </g>
    </g>
    <g id="ytick_13">
     <g id="line2d_30">
      <g>
       <use style="stroke:#000000;stroke-width:0.6;" x="54" xlink:href="#m73687819b3" y="110.920366"/>
      </g>
     </g>
    </g>
    <g id="ytick_14">
     <g id="line2d_31">
      <g>
       <use style="stroke:#000000;stroke-width:0.6;" x="54" xlink:href="#m73687819b3" y="102.110216"/>
      </g>
     </g>
    </g>
    <g id="ytick_15">
     <g id="line2d_32">
      <g>
       <use style="stroke:#000000;stroke-width:0.6;" x="54" xlink:href="#m73687819b3" y="94.66134"/>
      </g>
     </g>
    </g>
    <g id="ytick_16">
     <g id="line2d_33">
      <g>
       <use style="stroke:#000000;stroke-width:0.6;" x="54" xlink:href="#m73687819b3" y="88.208831"/>
      </g>
     </g>
    </g>
    <g id="ytick_17">
     <g id="line2d_34">
      <g>
       <use style="stroke:#000000;stroke-width:0.6;" x="54" xlink:href="#m73687819b3" y="82.517314"/>
      </g>
     </g>
    </g>
    <g id="ytick_18">
     <g id="line2d_35">
      <g>
       <use style="stroke:#000000;stroke-width:0.6;" x="54" xlink:href="#m73687819b3" y="43.93179"/>
      </g>
     </g>
    </g>
    <g id="text_6">
     <!-- Frequency of Nodes with degree k, n(k) -->
     <g transform="translate(17.420312 241.697188)rotate(-90)scale(0.1 -0.1)">
      <defs>
       <path d="M 9.8125 72.90625 
L 51.703125 72.90625 
L 51.703125 64.59375 
L 19.671875 64.59375 
L 19.671875 43.109375 
L 48.578125 43.109375 
L 48.578125 34.8125 
L 19.671875 34.8125 
L 19.671875 0 
L 9.8125 0 
z
" id="DejaVuSans-70"/>
       <path d="M 14.796875 27.296875 
Q 14.796875 17.390625 18.875 11.75 
Q 22.953125 6.109375 30.078125 6.109375 
Q 37.203125 6.109375 41.296875 11.75 
Q 45.40625 17.390625 45.40625 27.296875 
Q 45.40625 37.203125 41.296875 42.84375 
Q 37.203125 48.484375 30.078125 48.484375 
Q 22.953125 48.484375 18.875 42.84375 
Q 14.796875 37.203125 14.796875 27.296875 
z
M 45.40625 8.203125 
Q 42.578125 3.328125 38.25 0.953125 
Q 33.9375 -1.421875 27.875 -1.421875 
Q 17.96875 -1.421875 11.734375 6.484375 
Q 5.515625 14.40625 5.515625 27.296875 
Q 5.515625 40.1875 11.734375 48.09375 
Q 17.96875 56 27.875 56 
Q 33.9375 56 38.25 53.625 
Q 42.578125 51.265625 45.40625 46.390625 
L 45.40625 54.6875 
L 54.390625 54.6875 
L 54.390625 -20.796875 
L 45.40625 -20.796875 
z
" id="DejaVuSans-113"/>
       <path d="M 8.5 21.578125 
L 8.5 54.6875 
L 17.484375 54.6875 
L 17.484375 21.921875 
Q 17.484375 14.15625 20.5 10.265625 
Q 23.53125 6.390625 29.59375 6.390625 
Q 36.859375 6.390625 41.078125 11.03125 
Q 45.3125 15.671875 45.3125 23.6875 
L 45.3125 54.6875 
L 54.296875 54.6875 
L 54.296875 0 
L 45.3125 0 
L 45.3125 8.40625 
Q 42.046875 3.421875 37.71875 1 
Q 33.40625 -1.421875 27.6875 -1.421875 
Q 18.265625 -1.421875 13.375 4.4375 
Q 8.5 10.296875 8.5 21.578125 
z
M 31.109375 56 
z
" id="DejaVuSans-117"/>
       <path d="M 54.890625 33.015625 
L 54.890625 0 
L 45.90625 0 
L 45.90625 32.71875 
Q 45.90625 40.484375 42.875 44.328125 
Q 39.84375 48.1875 33.796875 48.1875 
Q 26.515625 48.1875 22.3125 43.546875 
Q 18.109375 38.921875 18.109375 30.90625 
L 18.109375 0 
L 9.078125 0 
L 9.078125 54.6875 
L 18.109375 54.6875 
L 18.109375 46.1875 
Q 21.34375 51.125 25.703125 53.5625 
Q 30.078125 56 35.796875 56 
Q 45.21875 56 50.046875 50.171875 
Q 54.890625 44.34375 54.890625 33.015625 
z
" id="DejaVuSans-110"/>
       <path d="M 48.78125 52.59375 
L 48.78125 44.1875 
Q 44.96875 46.296875 41.140625 47.34375 
Q 37.3125 48.390625 33.40625 48.390625 
Q 24.65625 48.390625 19.8125 42.84375 
Q 14.984375 37.3125 14.984375 27.296875 
Q 14.984375 17.28125 19.8125 11.734375 
Q 24.65625 6.203125 33.40625 6.203125 
Q 37.3125 6.203125 41.140625 7.25 
Q 44.96875 8.296875 48.78125 10.40625 
L 48.78125 2.09375 
Q 45.015625 0.34375 40.984375 -0.53125 
Q 36.96875 -1.421875 32.421875 -1.421875 
Q 20.0625 -1.421875 12.78125 6.34375 
Q 5.515625 14.109375 5.515625 27.296875 
Q 5.515625 40.671875 12.859375 48.328125 
Q 20.21875 56 33.015625 56 
Q 37.15625 56 41.109375 55.140625 
Q 45.0625 54.296875 48.78125 52.59375 
z
" id="DejaVuSans-99"/>
       <path d="M 32.171875 -5.078125 
Q 28.375 -14.84375 24.75 -17.8125 
Q 21.140625 -20.796875 15.09375 -20.796875 
L 7.90625 -20.796875 
L 7.90625 -13.28125 
L 13.1875 -13.28125 
Q 16.890625 -13.28125 18.9375 -11.515625 
Q 21 -9.765625 23.484375 -3.21875 
L 25.09375 0.875 
L 2.984375 54.6875 
L 12.5 54.6875 
L 29.59375 11.921875 
L 46.6875 54.6875 
L 56.203125 54.6875 
z
" id="DejaVuSans-121"/>
       <path d="M 30.609375 48.390625 
Q 23.390625 48.390625 19.1875 42.75 
Q 14.984375 37.109375 14.984375 27.296875 
Q 14.984375 17.484375 19.15625 11.84375 
Q 23.34375 6.203125 30.609375 6.203125 
Q 37.796875 6.203125 41.984375 11.859375 
Q 46.1875 17.53125 46.1875 27.296875 
Q 46.1875 37.015625 41.984375 42.703125 
Q 37.796875 48.390625 30.609375 48.390625 
z
M 30.609375 56 
Q 42.328125 56 49.015625 48.375 
Q 55.71875 40.765625 55.71875 27.296875 
Q 55.71875 13.875 49.015625 6.21875 
Q 42.328125 -1.421875 30.609375 -1.421875 
Q 18.84375 -1.421875 12.171875 6.21875 
Q 5.515625 13.875 5.515625 27.296875 
Q 5.515625 40.765625 12.171875 48.375 
Q 18.84375 56 30.609375 56 
z
" id="DejaVuSans-111"/>
       <path d="M 37.109375 75.984375 
L 37.109375 68.5 
L 28.515625 68.5 
Q 23.6875 68.5 21.796875 66.546875 
Q 19.921875 64.59375 19.921875 59.515625 
L 19.921875 54.6875 
L 34.71875 54.6875 
L 34.71875 47.703125 
L 19.921875 47.703125 
L 19.921875 0 
L 10.890625 0 
L 10.890625 47.703125 
L 2.296875 47.703125 
L 2.296875 54.6875 
L 10.890625 54.6875 
L 10.890625 58.5 
Q 10.890625 67.625 15.140625 71.796875 
Q 19.390625 75.984375 28.609375 75.984375 
z
" id="DejaVuSans-102"/>
       <path d="M 9.8125 72.90625 
L 23.09375 72.90625 
L 55.421875 11.921875 
L 55.421875 72.90625 
L 64.984375 72.90625 
L 64.984375 0 
L 51.703125 0 
L 19.390625 60.984375 
L 19.390625 0 
L 9.8125 0 
z
" id="DejaVuSans-78"/>
       <path d="M 45.40625 46.390625 
L 45.40625 75.984375 
L 54.390625 75.984375 
L 54.390625 0 
L 45.40625 0 
L 45.40625 8.203125 
Q 42.578125 3.328125 38.25 0.953125 
Q 33.9375 -1.421875 27.875 -1.421875 
Q 17.96875 -1.421875 11.734375 6.484375 
Q 5.515625 14.40625 5.515625 27.296875 
Q 5.515625 40.1875 11.734375 48.09375 
Q 17.96875 56 27.875 56 
Q 33.9375 56 38.25 53.625 
Q 42.578125 51.265625 45.40625 46.390625 
z
M 14.796875 27.296875 
Q 14.796875 17.390625 18.875 11.75 
Q 22.953125 6.109375 30.078125 6.109375 
Q 37.203125 6.109375 41.296875 11.75 
Q 45.40625 17.390625 45.40625 27.296875 
Q 45.40625 37.203125 41.296875 42.84375 
Q 37.203125 48.484375 30.078125 48.484375 
Q 22.953125 48.484375 18.875 42.84375 
Q 14.796875 37.203125 14.796875 27.296875 
z
" id="DejaVuSans-100"/>
       <path d="M 44.28125 53.078125 
L 44.28125 44.578125 
Q 40.484375 46.53125 36.375 47.5 
Q 32.28125 48.484375 27.875 48.484375 
Q 21.1875 48.484375 17.84375 46.4375 
Q 14.5 44.390625 14.5 40.28125 
Q 14.5 37.15625 16.890625 35.375 
Q 19.28125 33.59375 26.515625 31.984375 
L 29.59375 31.296875 
Q 39.15625 29.25 43.1875 25.515625 
Q 47.21875 21.78125 47.21875 15.09375 
Q 47.21875 7.46875 41.1875 3.015625 
Q 35.15625 -1.421875 24.609375 -1.421875 
Q 20.21875 -1.421875 15.453125 -0.5625 
Q 10.6875 0.296875 5.421875 2 
L 5.421875 11.28125 
Q 10.40625 8.6875 15.234375 7.390625 
Q 20.0625 6.109375 24.8125 6.109375 
Q 31.15625 6.109375 34.5625 8.28125 
Q 37.984375 10.453125 37.984375 14.40625 
Q 37.984375 18.0625 35.515625 20.015625 
Q 33.0625 21.96875 24.703125 23.78125 
L 21.578125 24.515625 
Q 13.234375 26.265625 9.515625 29.90625 
Q 5.8125 33.546875 5.8125 39.890625 
Q 5.8125 47.609375 11.28125 51.796875 
Q 16.75 56 26.8125 56 
Q 31.78125 56 36.171875 55.265625 
Q 40.578125 54.546875 44.28125 53.078125 
z
" id="DejaVuSans-115"/>
       <path d="M 4.203125 54.6875 
L 13.1875 54.6875 
L 24.421875 12.015625 
L 35.59375 54.6875 
L 46.1875 54.6875 
L 57.421875 12.015625 
L 68.609375 54.6875 
L 77.59375 54.6875 
L 63.28125 0 
L 52.6875 0 
L 40.921875 44.828125 
L 29.109375 0 
L 18.5 0 
z
" id="DejaVuSans-119"/>
       <path d="M 9.421875 54.6875 
L 18.40625 54.6875 
L 18.40625 0 
L 9.421875 0 
z
M 9.421875 75.984375 
L 18.40625 75.984375 
L 18.40625 64.59375 
L 9.421875 64.59375 
z
" id="DejaVuSans-105"/>
       <path d="M 18.3125 70.21875 
L 18.3125 54.6875 
L 36.8125 54.6875 
L 36.8125 47.703125 
L 18.3125 47.703125 
L 18.3125 18.015625 
Q 18.3125 11.328125 20.140625 9.421875 
Q 21.96875 7.515625 27.59375 7.515625 
L 36.8125 7.515625 
L 36.8125 0 
L 27.59375 0 
Q 17.1875 0 13.234375 3.875 
Q 9.28125 7.765625 9.28125 18.015625 
L 9.28125 47.703125 
L 2.6875 47.703125 
L 2.6875 54.6875 
L 9.28125 54.6875 
L 9.28125 70.21875 
z
" id="DejaVuSans-116"/>
       <path d="M 54.890625 33.015625 
L 54.890625 0 
L 45.90625 0 
L 45.90625 32.71875 
Q 45.90625 40.484375 42.875 44.328125 
Q 39.84375 48.1875 33.796875 48.1875 
Q 26.515625 48.1875 22.3125 43.546875 
Q 18.109375 38.921875 18.109375 30.90625 
L 18.109375 0 
L 9.078125 0 
L 9.078125 75.984375 
L 18.109375 75.984375 
L 18.109375 46.1875 
Q 21.34375 51.125 25.703125 53.5625 
Q 30.078125 56 35.796875 56 
Q 45.21875 56 50.046875 50.171875 
Q 54.890625 44.34375 54.890625 33.015625 
z
" id="DejaVuSans-104"/>
       <path d="M 31 75.875 
Q 24.46875 64.65625 21.28125 53.65625 
Q 18.109375 42.671875 18.109375 31.390625 
Q 18.109375 20.125 21.3125 9.0625 
Q 24.515625 -2 31 -13.1875 
L 23.1875 -13.1875 
Q 15.875 -1.703125 12.234375 9.375 
Q 8.59375 20.453125 8.59375 31.390625 
Q 8.59375 42.28125 12.203125 53.3125 
Q 15.828125 64.359375 23.1875 75.875 
z
" id="DejaVuSans-40"/>
       <path d="M 8.015625 75.875 
L 15.828125 75.875 
Q 23.140625 64.359375 26.78125 53.3125 
Q 30.421875 42.28125 30.421875 31.390625 
Q 30.421875 20.453125 26.78125 9.375 
Q 23.140625 -1.703125 15.828125 -13.1875 
L 8.015625 -13.1875 
Q 14.5 -2 17.703125 9.0625 
Q 20.90625 20.125 20.90625 31.390625 
Q 20.90625 42.671875 17.703125 53.65625 
Q 14.5 64.65625 8.015625 75.875 
z
" id="DejaVuSans-41"/>
      </defs>
      <use xlink:href="#DejaVuSans-70"/>
      <use x="50.269531" xlink:href="#DejaVuSans-114"/>
      <use x="89.132812" xlink:href="#DejaVuSans-101"/>
      <use x="150.65625" xlink:href="#DejaVuSans-113"/>
      <use x="214.132812" xlink:href="#DejaVuSans-117"/>
      <use x="277.511719" xlink:href="#DejaVuSans-101"/>
      <use x="339.035156" xlink:href="#DejaVuSans-110"/>
      <use x="402.414062" xlink:href="#DejaVuSans-99"/>
      <use x="457.394531" xlink:href="#DejaVuSans-121"/>
      <use x="516.574219" xlink:href="#DejaVuSans-32"/>
      <use x="548.361328" xlink:href="#DejaVuSans-111"/>
      <use x="609.542969" xlink:href="#DejaVuSans-102"/>
      <use x="644.748047" xlink:href="#DejaVuSans-32"/>
      <use x="676.535156" xlink:href="#DejaVuSans-78"/>
      <use x="751.339844" xlink:href="#DejaVuSans-111"/>
      <use x="812.521484" xlink:href="#DejaVuSans-100"/>
      <use x="875.998047" xlink:href="#DejaVuSans-101"/>
      <use x="937.521484" xlink:href="#DejaVuSans-115"/>
      <use x="989.621094" xlink:href="#DejaVuSans-32"/>
      <use x="1021.408203" xlink:href="#DejaVuSans-119"/>
      <use x="1103.195312" xlink:href="#DejaVuSans-105"/>
      <use x="1130.978516" xlink:href="#DejaVuSans-116"/>
      <use x="1170.1875" xlink:href="#DejaVuSans-104"/>
      <use x="1233.566406" xlink:href="#DejaVuSans-32"/>
      <use x="1265.353516" xlink:href="#DejaVuSans-100"/>
      <use x="1328.830078" xlink:href="#DejaVuSans-101"/>
      <use x="1390.353516" xlink:href="#DejaVuSans-103"/>
      <use x="1453.830078" xlink:href="#DejaVuSans-114"/>
      <use x="1492.693359" xlink:href="#DejaVuSans-101"/>
      <use x="1554.216797" xlink:href="#DejaVuSans-101"/>
      <use x="1615.740234" xlink:href="#DejaVuSans-32"/>
      <use x="1647.527344" xlink:href="#DejaVuSans-107"/>
      <use x="1705.4375" xlink:href="#DejaVuSans-44"/>
      <use x="1737.224609" xlink:href="#DejaVuSans-32"/>
      <use x="1769.011719" xlink:href="#DejaVuSans-110"/>
      <use x="1832.390625" xlink:href="#DejaVuSans-40"/>
      <use x="1871.404297" xlink:href="#DejaVuSans-107"/>
      <use x="1929.314453" xlink:href="#DejaVuSans-41"/>
     </g>
    </g>
   </g>
   <g id="patch_3">
    <path d="M 54 252 
L 54 34.56 
" style="fill:none;stroke:#000000;stroke-linecap:square;stroke-linejoin:miter;stroke-width:0.8;"/>
   </g>
   <g id="patch_4">
    <path d="M 388.8 252 
L 388.8 34.56 
" style="fill:none;stroke:#000000;stroke-linecap:square;stroke-linejoin:miter;stroke-width:0.8;"/>
   </g>
   <g id="patch_5">
    <path d="M 54 252 
L 388.8 252 
" style="fill:none;stroke:#000000;stroke-linecap:square;stroke-linejoin:miter;stroke-width:0.8;"/>
   </g>
   <g id="patch_6">
    <path d="M 54 34.56 
L 388.8 34.56 
" style="fill:none;stroke:#000000;stroke-linecap:square;stroke-linejoin:miter;stroke-width:0.8;"/>
   </g>
   <g id="text_7">
    <!-- Drug Projection Degree Distribution -->
    <g transform="translate(114.47625 28.56)scale(0.12 -0.12)">
     <defs>
      <path d="M 19.671875 64.796875 
L 19.671875 37.40625 
L 32.078125 37.40625 
Q 38.96875 37.40625 42.71875 40.96875 
Q 46.484375 44.53125 46.484375 51.125 
Q 46.484375 57.671875 42.71875 61.234375 
Q 38.96875 64.796875 32.078125 64.796875 
z
M 9.8125 72.90625 
L 32.078125 72.90625 
Q 44.34375 72.90625 50.609375 67.359375 
Q 56.890625 61.8125 56.890625 51.125 
Q 56.890625 40.328125 50.609375 34.8125 
Q 44.34375 29.296875 32.078125 29.296875 
L 19.671875 29.296875 
L 19.671875 0 
L 9.8125 0 
z
" id="DejaVuSans-80"/>
      <path d="M 9.421875 54.6875 
L 18.40625 54.6875 
L 18.40625 -0.984375 
Q 18.40625 -11.421875 14.421875 -16.109375 
Q 10.453125 -20.796875 1.609375 -20.796875 
L -1.8125 -20.796875 
L -1.8125 -13.1875 
L 0.59375 -13.1875 
Q 5.71875 -13.1875 7.5625 -10.8125 
Q 9.421875 -8.453125 9.421875 -0.984375 
z
M 9.421875 75.984375 
L 18.40625 75.984375 
L 18.40625 64.59375 
L 9.421875 64.59375 
z
" id="DejaVuSans-106"/>
      <path d="M 48.6875 27.296875 
Q 48.6875 37.203125 44.609375 42.84375 
Q 40.53125 48.484375 33.40625 48.484375 
Q 26.265625 48.484375 22.1875 42.84375 
Q 18.109375 37.203125 18.109375 27.296875 
Q 18.109375 17.390625 22.1875 11.75 
Q 26.265625 6.109375 33.40625 6.109375 
Q 40.53125 6.109375 44.609375 11.75 
Q 48.6875 17.390625 48.6875 27.296875 
z
M 18.109375 46.390625 
Q 20.953125 51.265625 25.265625 53.625 
Q 29.59375 56 35.59375 56 
Q 45.5625 56 51.78125 48.09375 
Q 58.015625 40.1875 58.015625 27.296875 
Q 58.015625 14.40625 51.78125 6.484375 
Q 45.5625 -1.421875 35.59375 -1.421875 
Q 29.59375 -1.421875 25.265625 0.953125 
Q 20.953125 3.328125 18.109375 8.203125 
L 18.109375 0 
L 9.078125 0 
L 9.078125 75.984375 
L 18.109375 75.984375 
z
" id="DejaVuSans-98"/>
     </defs>
     <use xlink:href="#DejaVuSans-68"/>
     <use x="77.001953" xlink:href="#DejaVuSans-114"/>
     <use x="118.115234" xlink:href="#DejaVuSans-117"/>
     <use x="181.494141" xlink:href="#DejaVuSans-103"/>
     <use x="244.970703" xlink:href="#DejaVuSans-32"/>
     <use x="276.757812" xlink:href="#DejaVuSans-80"/>
     <use x="335.310547" xlink:href="#DejaVuSans-114"/>
     <use x="374.173828" xlink:href="#DejaVuSans-111"/>
     <use x="435.355469" xlink:href="#DejaVuSans-106"/>
     <use x="463.138672" xlink:href="#DejaVuSans-101"/>
     <use x="524.662109" xlink:href="#DejaVuSans-99"/>
     <use x="579.642578" xlink:href="#DejaVuSans-116"/>
     <use x="618.851562" xlink:href="#DejaVuSans-105"/>
     <use x="646.634766" xlink:href="#DejaVuSans-111"/>
     <use x="707.816406" xlink:href="#DejaVuSans-110"/>
     <use x="771.195312" xlink:href="#DejaVuSans-32"/>
     <use x="802.982422" xlink:href="#DejaVuSans-68"/>
     <use x="879.984375" xlink:href="#DejaVuSans-101"/>
     <use x="941.507812" xlink:href="#DejaVuSans-103"/>
     <use x="1004.984375" xlink:href="#DejaVuSans-114"/>
     <use x="1043.847656" xlink:href="#DejaVuSans-101"/>
     <use x="1105.371094" xlink:href="#DejaVuSans-101"/>
     <use x="1166.894531" xlink:href="#DejaVuSans-32"/>
     <use x="1198.681641" xlink:href="#DejaVuSans-68"/>
     <use x="1275.683594" xlink:href="#DejaVuSans-105"/>
     <use x="1303.466797" xlink:href="#DejaVuSans-115"/>
     <use x="1355.566406" xlink:href="#DejaVuSans-116"/>
     <use x="1394.775391" xlink:href="#DejaVuSans-114"/>
     <use x="1435.888672" xlink:href="#DejaVuSans-105"/>
     <use x="1463.671875" xlink:href="#DejaVuSans-98"/>
     <use x="1527.148438" xlink:href="#DejaVuSans-117"/>
     <use x="1590.527344" xlink:href="#DejaVuSans-116"/>
     <use x="1629.736328" xlink:href="#DejaVuSans-105"/>
     <use x="1657.519531" xlink:href="#DejaVuSans-111"/>
     <use x="1718.701172" xlink:href="#DejaVuSans-110"/>
    </g>
   </g>
   <g id="legend_1">
    <g id="patch_7">
     <path d="M 167.847813 333.24425 
L 314.84 333.24425 
Q 316.84 333.24425 316.84 331.24425 
L 316.84 302.488 
Q 316.84 300.488 314.84 300.488 
L 167.847813 300.488 
Q 165.847813 300.488 165.847813 302.488 
L 165.847813 331.24425 
Q 165.847813 333.24425 167.847813 333.24425 
z
" style="fill:#ffffff;opacity:0.8;stroke:#cccccc;stroke-linejoin:miter;"/>
    </g>
    <g id="PathCollection_3">
     <g>
      <use style="fill:#ff6347;fill-opacity:0.6;stroke:#ff6347;stroke-opacity:0.6;" x="179.847813" xlink:href="#mc1080368bc" y="309.461437"/>
     </g>
    </g>
    <g id="text_8">
     <!-- Drug Projection -->
     <g transform="translate(197.847813 312.086437)scale(0.1 -0.1)">
      <use xlink:href="#DejaVuSans-68"/>
      <use x="77.001953" xlink:href="#DejaVuSans-114"/>
      <use x="118.115234" xlink:href="#DejaVuSans-117"/>
      <use x="181.494141" xlink:href="#DejaVuSans-103"/>
      <use x="244.970703" xlink:href="#DejaVuSans-32"/>
      <use x="276.757812" xlink:href="#DejaVuSans-80"/>
      <use x="335.310547" xlink:href="#DejaVuSans-114"/>
      <use x="374.173828" xlink:href="#DejaVuSans-111"/>
      <use x="435.355469" xlink:href="#DejaVuSans-106"/>
      <use x="463.138672" xlink:href="#DejaVuSans-101"/>
      <use x="524.662109" xlink:href="#DejaVuSans-99"/>
      <use x="579.642578" xlink:href="#DejaVuSans-116"/>
      <use x="618.851562" xlink:href="#DejaVuSans-105"/>
      <use x="646.634766" xlink:href="#DejaVuSans-111"/>
      <use x="707.816406" xlink:href="#DejaVuSans-110"/>
     </g>
    </g>
    <g id="PathCollection_4">
     <g>
      <use style="fill:#00bfff;fill-opacity:0.6;stroke:#00bfff;stroke-opacity:0.6;" x="179.847813" xlink:href="#m042f4ed82e" y="324.539562"/>
     </g>
    </g>
    <g id="text_9">
     <!-- Erdős Rényi Equivalent -->
     <g transform="translate(197.847813 327.164562)scale(0.1 -0.1)">
      <defs>
       <path d="M 9.8125 72.90625 
L 55.90625 72.90625 
L 55.90625 64.59375 
L 19.671875 64.59375 
L 19.671875 43.015625 
L 54.390625 43.015625 
L 54.390625 34.71875 
L 19.671875 34.71875 
L 19.671875 8.296875 
L 56.78125 8.296875 
L 56.78125 0 
L 9.8125 0 
z
" id="DejaVuSans-69"/>
       <path d="M 45.125 79.984375 
L 53.8125 79.984375 
L 41.703125 61.625 
L 35.109375 61.625 
z
M 28.8125 79.984375 
L 37.109375 79.984375 
L 26.21875 61.625 
L 19.53125 61.625 
z
M 30.609375 48.390625 
Q 23.390625 48.390625 19.1875 42.75 
Q 14.984375 37.109375 14.984375 27.296875 
Q 14.984375 17.484375 19.15625 11.84375 
Q 23.34375 6.203125 30.609375 6.203125 
Q 37.796875 6.203125 41.984375 11.859375 
Q 46.1875 17.53125 46.1875 27.296875 
Q 46.1875 37.015625 41.984375 42.703125 
Q 37.796875 48.390625 30.609375 48.390625 
z
M 30.609375 56 
Q 42.328125 56 49.015625 48.375 
Q 55.71875 40.765625 55.71875 27.296875 
Q 55.71875 13.875 49.015625 6.21875 
Q 42.328125 -1.421875 30.609375 -1.421875 
Q 18.84375 -1.421875 12.171875 6.21875 
Q 5.515625 13.875 5.515625 27.296875 
Q 5.515625 40.765625 12.171875 48.375 
Q 18.84375 56 30.609375 56 
z
" id="DejaVuSans-337"/>
       <path d="M 44.390625 34.1875 
Q 47.5625 33.109375 50.5625 29.59375 
Q 53.5625 26.078125 56.59375 19.921875 
L 66.609375 0 
L 56 0 
L 46.6875 18.703125 
Q 43.0625 26.03125 39.671875 28.421875 
Q 36.28125 30.8125 30.421875 30.8125 
L 19.671875 30.8125 
L 19.671875 0 
L 9.8125 0 
L 9.8125 72.90625 
L 32.078125 72.90625 
Q 44.578125 72.90625 50.734375 67.671875 
Q 56.890625 62.453125 56.890625 51.90625 
Q 56.890625 45.015625 53.6875 40.46875 
Q 50.484375 35.9375 44.390625 34.1875 
z
M 19.671875 64.796875 
L 19.671875 38.921875 
L 32.078125 38.921875 
Q 39.203125 38.921875 42.84375 42.21875 
Q 46.484375 45.515625 46.484375 51.90625 
Q 46.484375 58.296875 42.84375 61.546875 
Q 39.203125 64.796875 32.078125 64.796875 
z
" id="DejaVuSans-82"/>
       <path d="M 56.203125 29.59375 
L 56.203125 25.203125 
L 14.890625 25.203125 
Q 15.484375 15.921875 20.484375 11.0625 
Q 25.484375 6.203125 34.421875 6.203125 
Q 39.59375 6.203125 44.453125 7.46875 
Q 49.3125 8.734375 54.109375 11.28125 
L 54.109375 2.78125 
Q 49.265625 0.734375 44.1875 -0.34375 
Q 39.109375 -1.421875 33.890625 -1.421875 
Q 20.796875 -1.421875 13.15625 6.1875 
Q 5.515625 13.8125 5.515625 26.8125 
Q 5.515625 40.234375 12.765625 48.109375 
Q 20.015625 56 32.328125 56 
Q 43.359375 56 49.78125 48.890625 
Q 56.203125 41.796875 56.203125 29.59375 
z
M 47.21875 32.234375 
Q 47.125 39.59375 43.09375 43.984375 
Q 39.0625 48.390625 32.421875 48.390625 
Q 24.90625 48.390625 20.390625 44.140625 
Q 15.875 39.890625 15.1875 32.171875 
z
M 38.578125 79.984375 
L 48.296875 79.984375 
L 32.375 61.625 
L 24.90625 61.625 
z
" id="DejaVuSans-233"/>
       <path d="M 2.984375 54.6875 
L 12.5 54.6875 
L 29.59375 8.796875 
L 46.6875 54.6875 
L 56.203125 54.6875 
L 35.6875 0 
L 23.484375 0 
z
" id="DejaVuSans-118"/>
       <path d="M 34.28125 27.484375 
Q 23.390625 27.484375 19.1875 25 
Q 14.984375 22.515625 14.984375 16.5 
Q 14.984375 11.71875 18.140625 8.90625 
Q 21.296875 6.109375 26.703125 6.109375 
Q 34.1875 6.109375 38.703125 11.40625 
Q 43.21875 16.703125 43.21875 25.484375 
L 43.21875 27.484375 
z
M 52.203125 31.203125 
L 52.203125 0 
L 43.21875 0 
L 43.21875 8.296875 
Q 40.140625 3.328125 35.546875 0.953125 
Q 30.953125 -1.421875 24.3125 -1.421875 
Q 15.921875 -1.421875 10.953125 3.296875 
Q 6 8.015625 6 15.921875 
Q 6 25.140625 12.171875 29.828125 
Q 18.359375 34.515625 30.609375 34.515625 
L 43.21875 34.515625 
L 43.21875 35.40625 
Q 43.21875 41.609375 39.140625 45 
Q 35.0625 48.390625 27.6875 48.390625 
Q 23 48.390625 18.546875 47.265625 
Q 14.109375 46.140625 10.015625 43.890625 
L 10.015625 52.203125 
Q 14.9375 54.109375 19.578125 55.046875 
Q 24.21875 56 28.609375 56 
Q 40.484375 56 46.34375 49.84375 
Q 52.203125 43.703125 52.203125 31.203125 
z
" id="DejaVuSans-97"/>
       <path d="M 9.421875 75.984375 
L 18.40625 75.984375 
L 18.40625 0 
L 9.421875 0 
z
" id="DejaVuSans-108"/>
      </defs>
      <use xlink:href="#DejaVuSans-69"/>
      <use x="63.183594" xlink:href="#DejaVuSans-114"/>
      <use x="102.546875" xlink:href="#DejaVuSans-100"/>
      <use x="166.023438" xlink:href="#DejaVuSans-337"/>
      <use x="227.205078" xlink:href="#DejaVuSans-115"/>
      <use x="279.304688" xlink:href="#DejaVuSans-32"/>
      <use x="311.091797" xlink:href="#DejaVuSans-82"/>
      <use x="376.074219" xlink:href="#DejaVuSans-233"/>
      <use x="437.597656" xlink:href="#DejaVuSans-110"/>
      <use x="500.976562" xlink:href="#DejaVuSans-121"/>
      <use x="560.15625" xlink:href="#DejaVuSans-105"/>
      <use x="587.939453" xlink:href="#DejaVuSans-32"/>
      <use x="619.726562" xlink:href="#DejaVuSans-69"/>
      <use x="682.910156" xlink:href="#DejaVuSans-113"/>
      <use x="746.386719" xlink:href="#DejaVuSans-117"/>
      <use x="809.765625" xlink:href="#DejaVuSans-105"/>
      <use x="837.548828" xlink:href="#DejaVuSans-118"/>
      <use x="896.728516" xlink:href="#DejaVuSans-97"/>
      <use x="958.007812" xlink:href="#DejaVuSans-108"/>
      <use x="985.791016" xlink:href="#DejaVuSans-101"/>
      <use x="1047.314453" xlink:href="#DejaVuSans-110"/>
      <use x="1110.693359" xlink:href="#DejaVuSans-116"/>
     </g>
    </g>
   </g>
  </g>
 </g>
 <defs>
  <clipPath id="pe48fc8ac7e">
   <rect height="217.44" width="334.8" x="54" y="34.56"/>
  </clipPath>
 </defs>
</svg>
